<?xml version="1.0" encoding="UTF-8" standalone="no"?>
<svg
   width="100%"
   height="100%"
   viewBox="0 0 2964 630"
   version="1.1"
   xml:space="preserve"
   style="fill-rule:evenodd;clip-rule:evenodd;stroke-linejoin:round;stroke-miterlimit:2;"
   id="svg123"
   sodipodi:docname="simonyi-full-dark.svg"
   inkscape:version="1.1.2 (b8e25be833, 2022-02-05)"
   xmlns:inkscape="http://www.inkscape.org/namespaces/inkscape"
   xmlns:sodipodi="http://sodipodi.sourceforge.net/DTD/sodipodi-0.dtd"
   xmlns="http://www.w3.org/2000/svg"
   xmlns:svg="http://www.w3.org/2000/svg"><defs
   id="defs127" /><sodipodi:namedview
   id="namedview125"
   pagecolor="#ffffff"
   bordercolor="#666666"
   borderopacity="1.0"
   inkscape:pageshadow="2"
   inkscape:pageopacity="0.0"
   inkscape:pagecheckerboard="0"
   showgrid="false"
   inkscape:zoom="0.26719285"
   inkscape:cx="1517.6305"
   inkscape:cy="325.60752"
   inkscape:window-width="1920"
   inkscape:window-height="1009"
   inkscape:window-x="-8"
   inkscape:window-y="-8"
   inkscape:window-maximized="1"
   inkscape:current-layer="Simonyi" />
    <g
   id="Simonyi"
   transform="matrix(4.16667,0,0,4.16667,-235,-163)">
        <g
   transform="translate(286.107,65.368)"
   id="g4"
   style="fill:#f9f9f9">
            <path
   d="m 0,45.908 c -6.547,5.546 -15.328,5.623 -17.793,5.623 -3.235,0 -13.634,-0.154 -21.182,-8.088 -0.924,-1.002 -1.926,-2.31 -2.619,-3.543 l 8.55,-5.931 c 2.388,3.543 6.855,8.165 16.869,8.165 0.462,0 2.387,0 4.005,-0.385 1.155,-0.232 6.47,-1.695 6.47,-6.779 0,-0.539 -0.077,-2.002 -1.001,-3.235 -1.849,-2.465 -6.778,-3.158 -9.474,-3.774 l -6.471,-1.464 c -2.772,-0.616 -5.777,-1.232 -8.242,-2.542 -2.541,-1.309 -7.779,-4.776 -7.779,-12.632 0,-1.232 0.154,-4.775 2.08,-8.011 2.464,-4.159 8.396,-8.935 19.41,-8.935 4.853,0 14.404,0.77 21.953,11.015 L -3.62,11.631 C -5.314,8.935 -9.166,3.543 -17.716,3.543 c -0.539,0 -7.394,-0.076 -9.628,4.16 -0.463,0.847 -0.616,1.617 -0.616,2.465 0,0.924 0.231,1.694 0.693,2.465 1.309,2.233 4.313,2.926 9.32,4.005 l 5.623,1.232 c 5.161,1.156 10.861,2.696 14.481,6.933 1.54,1.694 3.158,4.159 3.158,9.166 0,4.929 -1.541,8.704 -5.315,11.939"
   style="fill:#f9f9f9;fill-rule:nonzero"
   id="path2" />
        </g>
        <g
   transform="translate(0,-52.618)"
   id="g8"
   style="fill:#f9f9f9">
            <path
   d="m 299.123,129.617 h 9.166 v 38.513 h -9.166 z m 0,-15.328 h 9.166 v 9.32 h -9.166 z"
   style="fill:#f9f9f9;fill-rule:nonzero"
   id="path6" />
        </g>
        <g
   transform="translate(366.828,75.8443)"
   id="g12"
   style="fill:#f9f9f9">
            <path
   d="m 0,39.668 v -23.57 c 0,-1.464 -0.308,-7.472 -6.47,-7.472 -1.464,0 -4.776,0.54 -6.855,3.929 -1.772,2.773 -1.849,5.931 -1.849,9.012 V 39.668 H -24.34 V 18.101 c 0,-0.848 -0.077,-1.695 -0.077,-2.542 0,-0.77 0,-3.466 -2.08,-5.392 -1.54,-1.387 -3.466,-1.464 -4.159,-1.464 -0.925,0 -2.927,0.232 -4.853,1.849 -3.774,3.235 -3.851,8.627 -3.851,12.94 v 16.176 h -9.244 V 1.155 h 9.244 l 0.077,4.313 C -38.667,4.621 -38.436,4.39 -38.051,4.082 -36.741,2.85 -32.582,0 -27.19,0 -22.8,0 -18.64,2.002 -16.483,5.854 -15.79,5.006 -15.02,3.928 -12.94,2.541 -11.323,1.463 -8.627,0 -4.082,0 1.772,0 7.01,2.541 8.627,8.549 c 0.462,1.772 0.54,3.312 0.54,6.779 v 24.34 z"
   style="fill:#f9f9f9;fill-rule:nonzero"
   id="path10" />
        </g>
        <g
   transform="translate(403.029,108.349)"
   id="g16"
   style="fill:#f9f9f9">
            <path
   d="m 0,-24.186 c -0.848,0 -3.158,0.154 -5.238,1.463 -2.003,1.31 -4.699,4.468 -4.699,10.245 0,1.849 0.155,3.466 0.771,5.237 0.616,1.849 3.312,7.087 9.628,7.087 7.01,0 10.167,-6.162 9.936,-12.247 C 10.244,-18.409 6.778,-24.186 0,-24.186 M 18.486,-3.62 C 16.946,0.308 11.939,8.319 0.462,8.319 c -1.617,0 -4.93,-0.077 -8.704,-1.772 -4.005,-1.771 -11.323,-7.163 -11.323,-18.794 0,-4.16 1.156,-7.241 1.695,-8.627 1.617,-3.851 6.547,-11.631 18.024,-11.631 1.463,0 4.853,0.154 8.473,1.772 4.159,1.771 11.323,6.932 11.4,18.486 0,1.386 -0.077,5.006 -1.541,8.627"
   style="fill:#f9f9f9;fill-rule:nonzero"
   id="path14" />
        </g>
        <g
   transform="translate(455.096,75.8443)"
   id="g20"
   style="fill:#f9f9f9">
            <path
   d="M 0,39.668 V 20.026 C 0,17.022 0,15.559 -0.385,14.095 -1.463,9.628 -4.93,9.012 -6.778,9.012 c -1.001,0 -2.927,0.154 -4.853,1.771 -2.772,2.311 -3.62,5.546 -3.62,12.17 v 16.715 h -9.32 V 1.155 h 9.32 v 4.544 c 0.154,-0.231 0.924,-1.232 1.694,-2.002 C -9.937,0.308 -4.698,0 -3.389,0 2.312,0 5.623,2.926 6.855,4.698 9.32,8.241 9.089,13.094 9.089,17.022 v 22.646 z"
   style="fill:#f9f9f9;fill-rule:nonzero"
   id="path18" />
        </g>
        <g
   transform="translate(495.379,95.1777)"
   id="g24"
   style="fill:#f9f9f9">
            <path
   d="m 0,15.405 c -1.387,4.775 -3.389,12.94 -7.009,15.867 -2.388,1.926 -4.853,2.311 -7.857,2.311 -2.927,0 -4.005,-0.231 -5.469,-0.539 v -8.011 c 3.697,0.463 5.777,0 7.164,-1.155 1.155,-1.078 1.463,-2.234 1.617,-2.773 l -13.941,-39.283 h 9.935 l 8.627,28.73 7.242,-28.73 h 9.473 z"
   style="fill:#f9f9f9;fill-rule:nonzero"
   id="path22" />
        </g>
        <g
   transform="translate(0,-52.618)"
   id="g28"
   style="fill:#f9f9f9">
            <path
   d="m 510.86,129.617 h 9.166 v 38.513 h -9.166 z m 0,-15.328 h 9.166 v 9.32 h -9.166 z"
   style="fill:#f9f9f9;fill-rule:nonzero"
   id="path26" />
        </g>
        <g
   transform="translate(586.884,61.1313)"
   id="g32"
   style="fill:#f9f9f9">
            <path
   d="M 0,54.381 -14.481,28.808 -23.339,38.976 V 54.381 H -33.43 V 0 h 10.091 V 24.957 L -1.541,0 H 10.398 L -7.395,20.489 11.631,54.381 Z"
   style="fill:#f9f9f9;fill-rule:nonzero"
   id="path30" />
        </g>
        <g
   transform="translate(622.467,106.191)"
   id="g36"
   style="fill:#f9f9f9">
            <path
   d="m 0,-34.815 h -6.932 l 3.851,-10.245 h 11.4 z m 3.774,24.957 c -1.54,0.77 -3.543,1.54 -7.317,2.156 -2.079,0.386 -4.313,0.463 -6.239,1.618 -1.31,0.848 -2.234,2.157 -2.234,3.852 0,2.31 1.695,4.543 6.317,4.543 5.083,0 8.087,-2.618 8.934,-4.39 0.617,-1.233 0.539,-2.311 0.539,-3.543 z m 0,19.179 -0.23,-3.004 C 2.08,7.55 0.771,8.166 0,8.474 c -2.542,1.156 -4.93,1.771 -7.779,1.771 -1.849,0 -8.782,-0.23 -12.325,-5.931 -0.616,-1.001 -1.771,-3.081 -1.694,-6.162 0,-2.156 0.539,-6.47 5.237,-9.628 3.159,-2.157 6.163,-2.619 9.707,-3.312 5.699,-1.155 7.779,-1.617 10.628,-2.619 0,-1.001 -0.077,-2.234 -0.539,-3.158 -0.77,-1.463 -2.695,-2.619 -6.085,-2.619 -3.543,0 -5.777,1.078 -6.778,2.388 -1.078,1.31 -1.001,2.85 -1.001,3.389 l -9.397,-0.539 c 0.077,-1.695 0.384,-5.777 4.159,-8.858 2.388,-2.003 6.008,-3.543 12.71,-3.543 6.315,0 10.012,1.309 12.4,3.004 1.618,1.155 2.465,2.465 2.774,3.081 1.001,2.002 1.001,4.698 1.001,6.855 V 3.082 c 0,2.927 0.154,3.774 1.694,6.239 z"
   style="fill:#f9f9f9;fill-rule:nonzero"
   id="path34" />
        </g>
        <g
   transform="translate(654.971,98.9515)"
   id="g40"
   style="fill:#f9f9f9">
            <path
   d="m 0,-6.239 c -0.692,2.157 -0.692,4.083 -0.692,6.316 v 16.484 h -8.936 v -38.513 h 8.936 v 5.468 c 0.615,-1.155 1.385,-2.31 2.31,-3.157 3.081,-3.005 8.088,-3.159 9.166,-3.159 h 0.771 v 9.475 c -1.926,0 -9.321,0 -11.555,7.086"
   style="fill:#f9f9f9;fill-rule:nonzero"
   id="path38" />
        </g>
        <g
   transform="translate(689.939,108.349)"
   id="g44"
   style="fill:#f9f9f9">
            <path
   d="m 0,-24.186 c -0.848,0 -3.158,0.154 -5.238,1.463 -2.002,1.31 -4.699,4.468 -4.699,10.245 0,1.849 0.155,3.466 0.771,5.237 0.616,1.849 3.312,7.087 9.628,7.087 7.01,0 10.168,-6.162 9.936,-12.247 C 10.244,-18.409 6.778,-24.186 0,-24.186 M 18.486,-3.62 C 16.945,0.308 11.938,8.319 0.462,8.319 c -1.617,0 -4.93,-0.077 -8.704,-1.772 -4.005,-1.771 -11.322,-7.163 -11.322,-18.794 0,-4.16 1.155,-7.241 1.694,-8.627 1.617,-3.851 6.547,-11.631 18.024,-11.631 1.463,0 4.853,0.154 8.473,1.772 4.159,1.771 11.323,6.932 11.399,18.486 0,1.386 -0.076,5.006 -1.54,8.627"
   style="fill:#f9f9f9;fill-rule:nonzero"
   id="path42" />
        </g>
        <g
   transform="translate(0,-53.158)"
   id="g48"
   style="fill:#f9f9f9">
            <rect
   x="717.59003"
   y="114.289"
   width="9.3970003"
   height="54.381001"
   style="fill:#f9f9f9"
   id="rect46" />
        </g>
        <g
   transform="translate(758.259,95.1777)"
   id="g52"
   style="fill:#f9f9f9">
            <path
   d="m 0,15.405 c -1.387,4.775 -3.389,12.94 -7.01,15.867 -2.387,1.926 -4.852,2.311 -7.856,2.311 -2.927,0 -4.005,-0.231 -5.469,-0.539 v -8.011 c 3.697,0.463 5.777,0 7.163,-1.155 1.156,-1.078 1.464,-2.234 1.618,-2.773 l -13.942,-39.283 h 9.936 l 8.627,28.73 7.242,-28.73 h 9.473 z"
   style="fill:#f9f9f9;fill-rule:nonzero"
   id="path50" />
        </g>
        <g
   transform="translate(266.587,143.211)"
   id="g56"
   style="fill:#f9f9f9">
            <path
   d="m 0,23 c -3.28,2.778 -7.68,2.816 -8.915,2.816 -1.62,0 -6.83,-0.077 -10.611,-4.051 -0.464,-0.502 -0.965,-1.158 -1.312,-1.776 l 4.283,-2.97 c 1.196,1.774 3.434,4.089 8.451,4.089 0.231,0 1.196,0 2.007,-0.192 0.578,-0.116 3.241,-0.85 3.241,-3.396 0,-0.27 -0.039,-1.003 -0.501,-1.621 -0.927,-1.235 -3.396,-1.582 -4.747,-1.89 l -3.242,-0.734 c -1.389,-0.308 -2.894,-0.618 -4.129,-1.273 -1.273,-0.656 -3.897,-2.393 -3.897,-6.329 0,-0.617 0.077,-2.393 1.042,-4.014 1.235,-2.083 4.206,-4.475 9.725,-4.475 2.431,0 7.215,0.385 10.998,5.517 l -4.207,3.126 c -0.849,-1.35 -2.778,-4.052 -7.062,-4.052 -0.27,0 -3.705,-0.038 -4.823,2.084 -0.232,0.425 -0.309,0.811 -0.309,1.235 0,0.464 0.115,0.849 0.347,1.235 0.656,1.119 2.161,1.466 4.669,2.007 l 2.818,0.617 c 2.585,0.579 5.441,1.351 7.254,3.473 0.772,0.849 1.583,2.084 1.583,4.593 0,2.469 -0.772,4.36 -2.663,5.981"
   style="fill:#f9f9f9;fill-rule:nonzero"
   id="path54" />
        </g>
        <g
   transform="translate(288.544,141.089)"
   id="g60"
   style="fill:#f9f9f9">
            <path
   d="M 0,27.244 V 23.076 L 14.896,4.554 H 1.273 V 0 h 19.99 V 4.322 L 6.946,22.652 h 14.317 v 4.592 z"
   style="fill:#f9f9f9;fill-rule:nonzero"
   id="path58" />
        </g>
        <g
   transform="translate(340.37,163.433)"
   id="g64"
   style="fill:#f9f9f9">
            <path
   d="M 0,-17.444 -3.782,-4.902 H 3.743 Z M 6.676,4.9 5.094,-0.425 H -5.132 L -6.714,4.9 h -5.48 l 9.223,-27.244 h 5.788 l 9.3,27.244 z"
   style="fill:#f9f9f9;fill-rule:nonzero"
   id="path62" />
        </g>
        <g
   transform="translate(389.726,141.089)"
   id="g68"
   style="fill:#f9f9f9">
            <path
   d="m 0,27.244 -7.255,-12.812 -4.437,5.094 v 7.718 h -5.056 V 0 h 5.056 V 12.503 L -0.772,0 h 5.981 l -8.914,10.265 9.532,16.979 z"
   style="fill:#f9f9f9;fill-rule:nonzero"
   id="path66" />
        </g>
        <g
   transform="translate(432.482,141.089)"
   id="g72"
   style="fill:#f9f9f9">
            <path
   d="m 0,27.244 -7.255,-12.812 -4.437,5.094 v 7.718 h -5.056 V 0 h 5.056 V 12.503 L -0.772,0 h 5.981 l -8.914,10.265 9.531,16.979 z"
   style="fill:#f9f9f9;fill-rule:nonzero"
   id="path70" />
        </g>
        <g
   transform="translate(476.629,160.769)"
   id="g76"
   style="fill:#f9f9f9">
            <path
   d="m 0,-12.117 c -1.428,-2.315 -3.589,-3.589 -6.329,-3.589 -1.698,0 -2.933,0.54 -3.473,0.811 -1.929,1.042 -4.322,3.589 -4.322,8.682 0,1.042 0.038,6.059 3.858,8.567 1.661,1.081 3.32,1.158 4.014,1.158 0.54,0 1.775,-0.039 3.126,-0.656 C -1.119,1.93 1.505,-0.386 1.62,-5.518 1.659,-7.757 1.234,-10.149 0,-12.117 M 2.971,4.361 c -0.617,0.656 -2.2,2.238 -4.631,3.126 -0.849,0.308 -2.431,0.771 -4.746,0.771 -3.86,0 -6.792,-1.273 -9.339,-4.206 -2.547,-2.895 -3.627,-6.29 -3.627,-10.072 0,-0.887 0.038,-2.971 0.81,-5.286 1.775,-5.442 6.445,-9.069 12.272,-9.069 5.248,0 8.373,2.856 9.646,4.321 1.429,1.622 3.435,4.786 3.397,9.996 0,1.698 -0.193,6.521 -3.782,10.419"
   style="fill:#f9f9f9;fill-rule:nonzero"
   id="path74" />
        </g>
        <g
   transform="translate(505.339,141.089)"
   id="g80"
   style="fill:#f9f9f9">
            <path
   d="M 0,27.244 V 0 h 5.133 v 22.613 h 10.805 v 4.631 z"
   style="fill:#f9f9f9;fill-rule:nonzero"
   id="path78" />
        </g>
        <g
   transform="translate(542.462,141.089)"
   id="g84"
   style="fill:#f9f9f9">
            <path
   d="M 0,27.244 V 0 h 5.133 v 22.613 h 10.805 v 4.631 z"
   style="fill:#f9f9f9;fill-rule:nonzero"
   id="path82" />
        </g>
        <g
   transform="translate(589.772,163.702)"
   id="g88"
   style="fill:#f9f9f9">
            <path
   d="m 0,-25.277 h -3.434 l 2.045,-4.63 H 4.168 Z M -10.342,4.63 V -22.614 H 9.03 v 4.554 H -5.325 v 6.405 H 7.834 v 4.399 H -5.325 V 0.038 H 9.995 V 4.63 Z"
   style="fill:#f9f9f9;fill-rule:nonzero"
   id="path86" />
        </g>
        <g
   transform="translate(639.63,141.089)"
   id="g92"
   style="fill:#f9f9f9">
            <path
   d="m 0,27.244 -0.039,-2.315 c -2.199,2.044 -4.438,3.009 -7.486,3.009 -1.66,0 -5.441,-0.231 -8.721,-3.434 -1.582,-1.582 -4.052,-4.978 -4.052,-10.612 0,-3.473 1.042,-7.1 3.203,-9.84 1.235,-1.544 4.476,-4.746 9.994,-4.746 0.772,0 2.509,0.077 4.477,0.81 1.775,0.694 5.209,2.508 6.984,7.216 l -4.862,1.93 C -0.965,7.949 -2.393,3.897 -7.139,3.897 c -0.926,0 -3.088,0.155 -4.901,1.968 -1.312,1.351 -2.701,3.666 -2.701,7.873 0,1.118 0,5.209 3.126,7.833 1.35,1.119 2.855,1.544 4.592,1.544 2.701,0 5.093,-1.312 6.135,-3.859 0.232,-0.54 0.425,-1.197 0.579,-2.431 H -7.101 V 12.348 H 4.36 v 14.896 z"
   style="fill:#f9f9f9;fill-rule:nonzero"
   id="path90" />
        </g>
        <g
   transform="translate(0,79.621)"
   id="g96"
   style="fill:#f9f9f9">
            <rect
   x="666.604"
   y="61.467999"
   width="5.0170002"
   height="27.243999"
   style="fill:#f9f9f9"
   id="rect94" />
        </g>
        <g
   transform="translate(716.384,147.34)"
   id="g100"
   style="fill:#f9f9f9">
            <path
   d="m 0,15.436 c -0.887,2.739 -4.013,6.251 -10.688,6.251 -3.204,0 -6.407,-0.772 -8.645,-3.241 -0.348,-0.348 -1.273,-1.467 -1.736,-2.933 -0.425,-1.389 -0.425,-2.663 -0.425,-5.556 V -6.251 h 5.133 v 16.748 c 0,1.62 0,2.199 0.269,3.009 0.502,1.621 1.969,3.242 5.596,3.242 0.656,0 4.399,0 5.518,-3.087 0.309,-0.888 0.348,-1.621 0.348,-3.435 V -6.251 H 0.464 V 9.455 c 0,3.126 0.038,4.437 -0.464,5.981"
   style="fill:#f9f9f9;fill-rule:nonzero"
   id="path98" />
        </g>
        <g
   transform="translate(760.26,141.089)"
   id="g104"
   style="fill:#f9f9f9">
            <path
   d="M 0,27.244 0.502,4.862 -5.402,27.244 h -4.592 l -5.904,-22.382 0.502,22.382 h -4.979 V 0 h 7.409 L -7.641,20.221 -2.393,0 h 7.372 v 27.244 z"
   style="fill:#f9f9f9;fill-rule:nonzero"
   id="path102" />
        </g>
        <g
   transform="translate(132.22,190.536)"
   id="g108">
            <path
   d="m 0,-151.271 c -41.705,0 -75.635,33.93 -75.635,75.635 C -75.635,-33.93 -41.705,0 0,0 c 41.706,0 75.636,-33.93 75.636,-75.636 0,-41.705 -33.93,-75.635 -75.636,-75.635 m 0,8.104 c 37.297,0 67.532,30.235 67.532,67.531 0,37.297 -30.235,67.532 -67.532,67.532 -37.296,0 -67.531,-30.235 -67.531,-67.532 0,-37.296 30.235,-67.531 67.531,-67.531"
   style="fill:#62bc47;fill-rule:nonzero"
   id="path106" />
        </g>
        <g
   transform="translate(110.314,109.764)"
   id="g112">
            <path
   d="m 0,-33.28 c 9.175,0 16.64,7.465 16.64,16.64 C 16.64,-7.465 9.175,0 0,0 c -9.175,0 -16.64,-7.465 -16.64,-16.64 0,-9.175 7.465,-16.64 16.64,-16.64 m 0,8.104 c -4.714,0 -8.536,3.822 -8.536,8.536 0,4.714 3.822,8.536 8.536,8.536 4.714,0 8.536,-3.822 8.536,-8.536 0,-4.714 -3.822,-8.536 -8.536,-8.536 m 87.554,12.433 H 12.723 c -2.153,0 -3.897,-1.744 -3.897,-3.896 0,-2.153 1.744,-3.897 3.897,-3.897 h 74.831 c 2.152,0 3.897,1.744 3.897,3.897 0,2.152 -1.745,3.896 -3.897,3.896"
   style="fill:#62bc47;fill-rule:nonzero"
   id="path110" />
        </g>
        <g
   transform="translate(139.385,135.17)"
   id="g116">
            <path
   d="m 0,6.895 h -70.422 c -1.904,0 -3.448,-1.543 -3.448,-3.447 C -73.87,1.543 -72.326,0 -70.422,0 H 0 C 1.904,0 3.447,1.543 3.447,3.448 3.447,5.352 1.904,6.895 0,6.895"
   style="fill:#62bc47;fill-rule:nonzero"
   id="path114" />
        </g>
        <g
   transform="translate(152.015,154.925)"
   id="g120">
            <path
   d="m 0,-33.279 c -9.175,0 -16.64,7.464 -16.64,16.64 C -16.64,-7.465 -9.175,0 0,0 9.175,0 16.64,-7.465 16.64,-16.639 16.64,-25.815 9.175,-33.279 0,-33.279 m 0,8.104 c 4.714,0 8.536,3.821 8.536,8.536 0,4.714 -3.822,8.536 -8.536,8.536 -4.714,0 -8.536,-3.822 -8.536,-8.536 0,-4.715 3.822,-8.536 8.536,-8.536"
   style="fill:#62bc47;fill-rule:nonzero"
   id="path118" />
        </g>
    </g>
</svg>
