<?xml version="1.0" encoding="UTF-8" standalone="no"?>
<svg
   width="630.29633"
   height="630.29633"
   viewBox="0 0 630.29633 630.29633"
   version="1.1"
   xml:space="preserve"
   style="clip-rule:evenodd;fill-rule:evenodd;stroke-linejoin:round;stroke-miterlimit:2"
   id="svg123"
   sodipodi:docname="simonyi-mini-white.svg"
   inkscape:version="1.1.2 (b8e25be833, 2022-02-05)"
   xmlns:inkscape="http://www.inkscape.org/namespaces/inkscape"
   xmlns:sodipodi="http://sodipodi.sourceforge.net/DTD/sodipodi-0.dtd"
   xmlns="http://www.w3.org/2000/svg"
   xmlns:svg="http://www.w3.org/2000/svg"><defs
   id="defs127" /><sodipodi:namedview
   id="namedview125"
   pagecolor="#ffffff"
   bordercolor="#666666"
   borderopacity="1.0"
   inkscape:pageshadow="2"
   inkscape:pageopacity="0.0"
   inkscape:pagecheckerboard="0"
   showgrid="false"
   inkscape:zoom="0.26719285"
   inkscape:cx="1418.4512"
   inkscape:cy="325.60752"
   inkscape:window-width="1920"
   inkscape:window-height="1009"
   inkscape:window-x="-8"
   inkscape:window-y="-8"
   inkscape:window-maximized="1"
   inkscape:current-layer="Simonyi"
   fit-margin-top="0"
   fit-margin-left="0"
   fit-margin-right="0"
   fit-margin-bottom="0" />
    <g
   id="Simonyi"
   transform="matrix(4.16667,0,0,4.16667,-235.77102,-163.6043)">
        
        
        
        
        
        
        
        
        
        
        
        
        
        
        
        
        
        
        
        
        
        
        
        
        
        
        <g
   transform="translate(132.22,190.536)"
   id="g108"
   style="fill:#f9f9f9">
            <path
   d="m 0,-151.271 c -41.705,0 -75.635,33.93 -75.635,75.635 C -75.635,-33.93 -41.705,0 0,0 c 41.706,0 75.636,-33.93 75.636,-75.636 0,-41.705 -33.93,-75.635 -75.636,-75.635 m 0,8.104 c 37.297,0 67.532,30.235 67.532,67.531 0,37.297 -30.235,67.532 -67.532,67.532 -37.296,0 -67.531,-30.235 -67.531,-67.532 0,-37.296 30.235,-67.531 67.531,-67.531"
   style="fill:#f9f9f9;fill-rule:nonzero"
   id="path106" />
        </g>
        <g
   transform="translate(110.314,109.764)"
   id="g112"
   style="fill:#f9f9f9">
            <path
   d="m 0,-33.28 c 9.175,0 16.64,7.465 16.64,16.64 C 16.64,-7.465 9.175,0 0,0 c -9.175,0 -16.64,-7.465 -16.64,-16.64 0,-9.175 7.465,-16.64 16.64,-16.64 m 0,8.104 c -4.714,0 -8.536,3.822 -8.536,8.536 0,4.714 3.822,8.536 8.536,8.536 4.714,0 8.536,-3.822 8.536,-8.536 0,-4.714 -3.822,-8.536 -8.536,-8.536 m 87.554,12.433 H 12.723 c -2.153,0 -3.897,-1.744 -3.897,-3.896 0,-2.153 1.744,-3.897 3.897,-3.897 h 74.831 c 2.152,0 3.897,1.744 3.897,3.897 0,2.152 -1.745,3.896 -3.897,3.896"
   style="fill:#f9f9f9;fill-rule:nonzero"
   id="path110" />
        </g>
        <g
   transform="translate(139.385,135.17)"
   id="g116"
   style="fill:#f9f9f9">
            <path
   d="m 0,6.895 h -70.422 c -1.904,0 -3.448,-1.543 -3.448,-3.447 C -73.87,1.543 -72.326,0 -70.422,0 H 0 C 1.904,0 3.447,1.543 3.447,3.448 3.447,5.352 1.904,6.895 0,6.895"
   style="fill:#f9f9f9;fill-rule:nonzero"
   id="path114" />
        </g>
        <g
   transform="translate(152.015,154.925)"
   id="g120"
   style="fill:#f9f9f9">
            <path
   d="m 0,-33.279 c -9.175,0 -16.64,7.464 -16.64,16.64 C -16.64,-7.465 -9.175,0 0,0 9.175,0 16.64,-7.465 16.64,-16.639 16.64,-25.815 9.175,-33.279 0,-33.279 m 0,8.104 c 4.714,0 8.536,3.821 8.536,8.536 0,4.714 -3.822,8.536 -8.536,8.536 -4.714,0 -8.536,-3.822 -8.536,-8.536 0,-4.715 3.822,-8.536 8.536,-8.536"
   style="fill:#f9f9f9;fill-rule:nonzero"
   id="path118" />
        </g>
    </g>
</svg>
