<?xml version="1.0" encoding="UTF-8" standalone="no"?>
<!DOCTYPE svg PUBLIC "-//W3C//DTD SVG 1.1//EN" "http://www.w3.org/Graphics/SVG/1.1/DTD/svg11.dtd">
<svg width="100%" height="100%" viewBox="0 0 18 18" version="1.1" xmlns="http://www.w3.org/2000/svg" xmlns:xlink="http://www.w3.org/1999/xlink" xml:space="preserve" xmlns:serif="http://www.serif.com/" style="fill-rule:evenodd;clip-rule:evenodd;stroke-linejoin:round;stroke-miterlimit:2;">
    <g transform="matrix(1,0,0,1,0.49515,0.475665)">
        <path d="M8.505,0.019C3.815,0.019 0,3.835 0,8.524C0,13.214 3.815,17.029 8.505,17.029C13.195,17.029 17.01,13.214 17.01,8.524C17.01,3.835 13.195,0.019 8.505,0.019ZM8.505,0.931C12.699,0.931 16.099,4.331 16.099,8.524C16.099,12.718 12.699,16.118 8.505,16.118C4.311,16.118 0.911,12.718 0.911,8.524C0.911,4.331 4.311,0.931 8.505,0.931Z" style="fill:rgb(99,188,71);fill-rule:nonzero;"/>
        <path d="M6.042,4.205C7.073,4.205 7.913,5.044 7.913,6.076C7.913,7.107 7.073,7.947 6.042,7.947C5.01,7.947 4.17,7.107 4.17,6.076C4.17,5.044 5.01,4.205 6.042,4.205ZM6.042,5.116C5.512,5.116 5.082,5.546 5.082,6.076C5.082,6.606 5.512,7.036 6.042,7.036C6.572,7.036 7.001,6.606 7.001,6.076C7.001,5.546 6.572,5.116 6.042,5.116ZM15.887,6.514L7.472,6.514C7.23,6.514 7.034,6.318 7.034,6.076C7.034,5.834 7.23,5.638 7.472,5.638L15.887,5.638C16.129,5.638 16.325,5.834 16.325,6.076C16.325,6.318 16.129,6.514 15.887,6.514Z" style="fill:rgb(99,188,71);fill-rule:nonzero;"/>
        <path d="M9.31,11.579L1.392,11.579C1.178,11.579 1.004,11.405 1.004,11.191C1.004,10.977 1.178,10.804 1.392,10.804L9.31,10.804C9.525,10.804 9.698,10.977 9.698,11.191C9.698,11.405 9.525,11.579 9.31,11.579Z" style="fill:rgb(99,188,71);fill-rule:nonzero;"/>
        <path d="M10.731,9.283C9.699,9.283 8.86,10.122 8.86,11.154C8.86,12.185 9.699,13.025 10.731,13.025C11.762,13.025 12.602,12.185 12.602,11.154C12.602,10.122 11.762,9.283 10.731,9.283ZM10.731,10.194C11.261,10.194 11.691,10.624 11.691,11.154C11.691,11.684 11.261,12.114 10.731,12.114C10.201,12.114 9.771,11.684 9.771,11.154C9.771,10.624 10.201,10.194 10.731,10.194Z" style="fill:rgb(99,188,71);fill-rule:nonzero;"/>
    </g>
</svg>
