<?xml version="1.0" encoding="UTF-8" standalone="no"?>
<svg
   width="100%"
   height="100%"
   viewBox="0 0 929 697"
   version="1.1"
   xml:space="preserve"
   style="fill-rule:evenodd;clip-rule:evenodd;stroke-linejoin:round;stroke-miterlimit:2;"
   id="svg67"
   sodipodi:docname="AC.svg"
   inkscape:version="1.1.2 (b8e25be833, 2022-02-05)"
   xmlns:inkscape="http://www.inkscape.org/namespaces/inkscape"
   xmlns:sodipodi="http://sodipodi.sourceforge.net/DTD/sodipodi-0.dtd"
   xmlns="http://www.w3.org/2000/svg"
   xmlns:svg="http://www.w3.org/2000/svg"><defs
   id="defs71" /><sodipodi:namedview
   id="namedview69"
   pagecolor="#ffffff"
   bordercolor="#666666"
   borderopacity="1.0"
   inkscape:pageshadow="2"
   inkscape:pageopacity="0.0"
   inkscape:pagecheckerboard="0"
   showgrid="false"
   inkscape:zoom="1.0688666"
   inkscape:cx="464.51074"
   inkscape:cy="348.03221"
   inkscape:window-width="1920"
   inkscape:window-height="1009"
   inkscape:window-x="-8"
   inkscape:window-y="-8"
   inkscape:window-maximized="1"
   inkscape:current-layer="svg67" />
    <g
   id="AC"
   transform="matrix(1,0,0,1,-83,-18)"
   style="fill:#f9f9f9">
        <g
   transform="matrix(1,0,0,1,1013.09,148.155)"
   id="g4"
   style="fill:#f9f9f9">
            <path
   d="M0,291.112C-6.722,298.985 -12.088,308.217 -19.51,315.419C-27.536,313.505 -36.755,312.876 -44.568,310.772C-44.1,302.288 -34.091,303.239 -31.52,296.849C-95.452,301.564 -143.708,306.811 -204.449,307.007C-193.778,289.607 -178.492,276.768 -167.062,260.141C-235.736,261.425 -286.472,283.423 -352.908,291.057C-349.289,261.111 -324.428,252.159 -312.458,230.458C-386.259,231.842 -436.608,256.396 -474.387,293.389C-444.435,289.137 -419.08,283.285 -393.012,283.279C-397.881,301.918 -406.89,316.479 -411.994,334.918C-401.162,341.785 -385.744,336.67 -373.722,334.183C-336.781,326.516 -297.533,318.396 -257.668,309.736C-261.359,330.659 -283.343,333.524 -296.945,344.673C-297.215,339.362 -295.072,336.466 -293.847,332.649C-305.389,334.084 -316.965,335.503 -327.029,338.413C-344.445,372.023 -353.446,413.984 -385.132,433.528C-388.686,424.54 -395.66,419.184 -398.903,409.866C-376.066,396.661 -368.13,368.753 -355.187,345.791C-373.616,346.687 -396.26,357.634 -414.765,364.023C-424.747,360.131 -432.376,353.73 -438.423,345.678C-434.412,330.082 -427.751,317.105 -422.603,302.646C-438.775,306.496 -447.126,307.716 -464.072,310.28C-471.166,299.819 -487.196,298.917 -505.871,300.825C-504.327,285.808 -490.381,275.167 -479.87,267.857C-464.593,257.206 -442.704,253.591 -430.474,239.563C-397.754,230.543 -373.753,212.908 -334.482,210.375C-325.087,190.866 -324.318,165.864 -327.473,141.876C-335.701,155.537 -343.402,169.716 -356.738,178.33C-354.432,167.57 -360.238,149.48 -355.861,137.293C-375.793,150 -383.186,175.112 -403.168,187.767C-401.146,176.858 -406.054,158.87 -405.619,146.795C-417.532,155.689 -429.048,179.496 -444.736,190.274C-443.097,173.459 -440.996,157.08 -439.03,140.6C-464.306,163.663 -485.952,190.313 -505.782,218.791C-495.165,259.263 -515.995,274.654 -527.504,301.241C-559.904,302.67 -567.215,277.344 -586.467,264.775C-585.525,233.191 -591.25,209.836 -577.893,191.121C-577.017,218.468 -577.278,251.764 -567.965,274.675C-560.118,278.491 -549.514,279.396 -539.545,280.968C-516.169,260.452 -520.333,220.385 -523.111,183.233C-540.658,154.534 -586.028,167.144 -624.913,169.806C-632.436,210.609 -643.708,262.473 -630.346,320.309C-620.776,320.263 -611.121,320.3 -603.754,318.091C-612.011,332.826 -620.574,347.28 -632.954,357.961C-650.609,327.877 -652.255,289.028 -666.505,257.766C-663.559,200.508 -665.116,139.337 -646.521,84.769C-641.447,69.873 -632.734,53.794 -625.774,38.226C-610.484,4.008 -598.043,-13.903 -575.697,-41.353C-553.402,-68.75 -538.845,-87.436 -506.99,-104.199C-460.08,-116.362 -399.66,-110.652 -368.284,-76.099C-378.188,-106.57 -409.47,-118.685 -452.369,-120.63C-491.625,-122.422 -499.596,-117.911 -523.597,-102.171C-583.289,-63.048 -630.71,12.599 -659.999,76.484C-662.843,71.36 -657.078,60.414 -655.432,54.177C-690.183,82.311 -726.528,106.287 -768.776,133.26C-781.191,141.171 -792.935,153.804 -806.557,159.62C-825.71,167.766 -849.141,166.438 -869.528,174.503C-880.712,178.924 -887.137,190.274 -899.087,195.581C-909.514,226.524 -901.956,254.242 -887.561,275.685C-873.036,274.379 -863.774,267.895 -851.15,264.731C-836.618,274.211 -820.373,281.863 -805.694,291.203C-799.78,288.032 -795.478,284.036 -789.285,278.924C-786.154,276.336 -777.4,264.958 -774.57,264.968C-762.685,264.964 -746.931,304.313 -733.813,306.914C-723.955,294.863 -718.341,278.624 -709.639,265.431C-694.344,291.235 -680.857,347.804 -665.907,375.684C-664.938,377.478 -654.045,389.129 -653.962,390.835C-653.533,399.252 -672.098,410.409 -673.439,416.844C-712.418,395.547 -744.932,364.21 -784.743,342.075C-824.52,319.937 -868.486,306.837 -912.326,286.414C-929.592,261.06 -937.462,206.622 -917.721,178.847C-909.667,173.394 -899.648,169.887 -893.054,162.991C-825.666,155.355 -777.95,114.912 -733.183,79.598C-717.621,67.319 -699.009,54.399 -682.319,41.022C-665.598,27.61 -646.399,14.011 -634.816,0.8C-621.003,-14.967 -615.005,-38.136 -600.921,-54.542C-594.507,-62.013 -583.967,-67.957 -576.354,-75.522C-542.902,-108.825 -489.994,-142.416 -417.49,-124.718C-397.238,-119.774 -368.427,-104.397 -353.567,-90.055C-337.728,-96.494 -326.964,-115.892 -305.704,-111.482C-305.367,-80.998 -315.537,-47.971 -318.78,-12.104C-282.644,-36.623 -241.289,-81.494 -190.753,-106.853C-174.682,-114.938 -161.5,-129.907 -144.389,-119.707C-144.339,-95.284 -149.543,-80.366 -148.201,-58.107C-134.12,-58.924 -116.32,-74.409 -95.313,-77.921C-65.545,-82.902 -28.324,-80.438 -23.333,-57.087C-39.274,-48.253 -51.184,-35.444 -66.008,-25.503C-113.521,40.953 -169.757,98.792 -237.518,145.276C-240.529,107.087 -234.527,63.306 -219.615,37.264C-249.09,50.597 -277.127,79.866 -310.056,95.401C-304.472,133.778 -304.594,165.708 -309.588,206.479C-302.013,213.494 -291.924,217.845 -282.635,223.048C-286.853,243.454 -298.658,256.377 -308.342,271.398C-286.939,265.042 -263.426,261.942 -238.713,256.389C-203.062,248.357 -166.172,233.668 -132.347,247.509C-143.292,263.512 -160.04,273.765 -173.193,287.606C-118.78,289.892 -56.409,278.406 0,291.112M-59.975,-58.092C-110.887,-62.755 -144.803,-38.945 -192.639,-31.617C-182.635,-54.129 -160.851,-65.024 -163.998,-100.531C-231.312,-75.96 -279.235,-17.733 -338.124,20.739C-335.315,-15.034 -333.845,-52.148 -328.51,-85.407C-392.827,-36.661 -441.82,50.691 -475.871,129.345C-446.6,92.331 -415.365,48.338 -379.692,23.246C-377.046,52.592 -386.707,83.575 -371.495,103.416C-348.451,85.44 -322.694,75.322 -299.128,57.591C-268.985,34.896 -244.645,5.649 -196.942,4.356C-203.477,36.049 -205.074,60.348 -210.081,100.316C-169.351,64.533 -134.415,18.348 -97.527,-19.77C-84.68,-33.057 -68.43,-42.462 -59.975,-58.092"
   style="fill:#f9f9f9;fill-rule:nonzero"
   id="path2" />
        </g>
        <g
   transform="matrix(1,0,0,1,997.206,630.116)"
   id="g8"
   style="fill:#f9f9f9">
            <path
   d="M0,-151.232C-1.389,-140.179 3.345,-131.263 0.524,-123.897C-48.39,-136.339 -123.024,-145.382 -172.602,-123.99C-196.543,-113.67 -220.288,-83.835 -202.841,-51.628C-173.518,2.466 -62.261,-16.062 -2.633,-28.128C-3.665,-19.666 -4.584,-11.067 -3.769,-0.756C-96.664,12.763 -219.014,26.959 -275.632,-28.01C-290.983,-42.929 -304.016,-75.665 -290.422,-104.636C-255.926,-178.191 -77.8,-170.861 0,-151.232"
   style="fill:#f9f9f9;fill-rule:nonzero"
   id="path6" />
        </g>
        <g
   transform="matrix(1,0,0,1,650.74,463.801)"
   id="g12"
   style="fill:#f9f9f9">
            <path
   d="M0,177.265C-23.392,176.994 -53.86,177.649 -84.865,178.894C-90.588,168.713 -96.716,158.988 -103.729,150.2C-152.853,148.458 -199.984,150.768 -236.918,149.339C-247.824,155.326 -250.124,169.813 -259.689,177.125C-289.774,177.733 -328.057,178.862 -346.253,177.076C-304.566,116.576 -262.761,56.197 -218.172,-1.419C-184.016,-1.581 -159.099,-0.028 -118.296,-1.629C-80.006,59.212 -37.377,115.446 0,177.265M-122.558,123.22C-136.765,95.938 -153.338,71.2 -170.628,47.23C-186.997,72.959 -205.215,96.86 -220.77,123.393C-183.768,123.144 -150.435,120.95 -122.558,123.22"
   style="fill:#f9f9f9;fill-rule:nonzero"
   id="path10" />
        </g>
        <g
   transform="matrix(1,0,0,1,1007.86,676.076)"
   id="g16"
   style="fill:#f9f9f9">
            <path
   d="M0,11.115C-15.632,11.927 -21.963,11.671 -38.273,11.849C-34.896,29.812 -9.341,20.572 0.163,19.654C-8.519,37.252 -50.306,31.886 -56.446,19.034C-71.567,-12.636 -1.531,-26.137 0,11.115M-36.838,-0.145C-35.711,4.706 -21.329,7.165 -20.166,1.246C-23.161,-3.174 -31.84,-2.564 -36.838,-0.145"
   style="fill:#f9f9f9;fill-rule:nonzero"
   id="path14" />
        </g>
        <g
   transform="matrix(1,0,0,1,920.874,713.274)"
   id="g20"
   style="fill:#f9f9f9">
            <path
   d="M0,-48.345C11.621,-48.276 14.323,-47.95 23.33,-47.081C12.136,-30.989 10.084,0 -17.482,-5.28C-25.068,-18.107 -32.904,-30.689 -38.241,-45.9C-28.478,-47.268 -27.512,-47.217 -18.303,-47.993C-14.106,-42.587 -12.613,-34.309 -7.957,-29.389C-4.792,-35.195 -1.081,-40.479 0,-48.345"
   style="fill:#f9f9f9;fill-rule:nonzero"
   id="path18" />
        </g>
        <g
   transform="matrix(0.019216,0.999815,0.999815,-0.019216,872.598,668.496)"
   id="g24"
   style="fill:#f9f9f9">
            <path
   d="M-16.308,3.398L-6.056,3.398C-3.391,-0.414 -3.39,-12.763 -6.057,-16.573L-16.308,-16.574L-16.308,3.398Z"
   style="fill:#f9f9f9;fill-rule:nonzero"
   id="path22" />
        </g>
        <g
   transform="matrix(-0.907292,-0.420501,-0.420501,0.907292,845.841,702.165)"
   id="g28"
   style="fill:#f9f9f9">
            <path
   d="M-12.767,-44.122C-19.506,-29.064 -21.019,-22.273 -29.975,-8.788C-27.782,-4.09 -18.416,-1.959 -12.767,1.495C-3.857,-8.059 -2.689,-21.253 5.938,-36.915C0.889,-35.742 -6.565,-41.804 -12.767,-44.122"
   style="fill:#f9f9f9;fill-rule:nonzero"
   id="path26" />
        </g>
        <g
   transform="matrix(-0.948864,-0.315686,-0.315686,0.948864,809.373,706.092)"
   id="g32"
   style="fill:#f9f9f9">
            <path
   d="M-9.228,-60.969C-15.576,-46.38 -22.597,-26.514 -26.484,-7.261C-22.122,-2.579 -16.834,-5.241 -9.228,-1.15C-4.367,-20.31 2.79,-30.846 5.888,-53.804C3.014,-56.347 -1.145,-58.162 -9.228,-60.969"
   style="fill:#f9f9f9;fill-rule:nonzero"
   id="path30" />
        </g>
        <g
   transform="matrix(1,0,0,1,763.017,680.275)"
   id="g36"
   style="fill:#f9f9f9">
            <path
   d="M0,-0.351C1.253,9.267 -3.353,13.079 -6.292,18.573C-4.028,21.962 -0.723,24.241 3.824,25.213C-20.795,22.727 -59.595,37.642 -71.321,12.986C-70.476,5.993 -66.67,1.938 -59.903,0.799C-61.205,-5.377 -67.348,-6.372 -65.225,-16.188C-50.192,-37.993 1.841,-11.308 -34.911,2.032C-31.651,6.103 -27.4,9.116 -21.435,10.318C-16.678,9.984 -18.525,3.115 -18.335,-1.706C-12.217,-1.279 -3.636,-3.458 0,-0.351M-39.999,-3.002C-39.669,-9.175 -39.81,-14.829 -46.854,-13.121C-50.596,-8.623 -46.833,-1.571 -39.999,-3.002M-53.148,5.799C-55.557,16.577 -39.095,21.592 -34.682,13.991C-40.876,11.285 -43.479,4.775 -53.148,5.799"
   style="fill:#f9f9f9;fill-rule:nonzero"
   id="path34" />
        </g>
        <g
   transform="matrix(1,0,0,1,601.346,705.895)"
   id="g40"
   style="fill:#f9f9f9">
            <path
   d="M0,-36.537C26.251,-44.376 45.872,-34.221 38.733,-13.353C31.481,7.839 -11.795,5.525 -16.217,-14.007C-19.745,-29.578 -11.62,-33.086 0,-36.537M12.235,-6.01C22.259,-6.134 25.854,-24.03 16.737,-31.733C-6.286,-34.504 1.27,-5.903 12.235,-6.01"
   style="fill:#f9f9f9;fill-rule:nonzero"
   id="path38" />
        </g>
        <g
   transform="matrix(-0.473653,-0.880711,-0.880711,0.473653,557.372,650.053)"
   id="g44"
   style="fill:#f9f9f9">
            <path
   d="M-10.467,-13.696C-15.657,-12.399 -13.62,-8.84 -18.827,-7.535L-10.467,8.753L-1.347,4.072C-1.908,-0.914 -5.544,-11.283 -10.467,-13.696"
   style="fill:#f9f9f9;fill-rule:nonzero"
   id="path42" />
        </g>
        <g
   transform="matrix(-0.920791,-0.390057,-0.390057,0.920791,548.888,701.758)"
   id="g48"
   style="fill:#f9f9f9">
            <path
   d="M-8.435,-41.882C-14.73,-27.159 -21.836,-13.662 -23.631,-3.755L-8.435,3.029L7.587,-32.859C5.613,-37.218 -3.079,-38.894 -8.435,-41.882"
   style="fill:#f9f9f9;fill-rule:nonzero"
   id="path46" />
        </g>
        <g
   transform="matrix(1,0,0,1,532.79,704.3)"
   id="g52"
   style="fill:#f9f9f9">
            <path
   d="M0,-50.717C-2.569,-32.808 -0.904,-12.845 -2.312,2.307C-16.373,3.383 -26.661,-0.899 -38.919,3.01C-49.048,-0.813 -54.382,-16.756 -49.561,-30.968C-41.943,-34.785 -33.495,-40.367 -23.033,-36.603C-18.267,-38.863 -22.473,-46.355 -20.034,-53.75C-11.063,-52.95 -8.089,-54.1 0,-50.717M-24.075,-4.111C-17.275,-6.275 -18.353,-23.465 -21.239,-29.801C-37.76,-33.705 -38.442,-2.5 -24.075,-4.111"
   style="fill:#f9f9f9;fill-rule:nonzero"
   id="path50" />
        </g>
        <g
   transform="matrix(1,0,0,1,461.433,705.666)"
   id="g56"
   style="fill:#f9f9f9">
            <path
   d="M0,-40.46C3.879,-30.073 1.231,-12.729 2.451,0.512C-2.119,1.725 -17.908,6.529 -17.583,-2.522C-24.207,0.136 -34.906,2.974 -42.511,-0.333C-50.466,-6.382 -47.185,-24.428 -48.225,-37.825C-22.082,-46.989 -31.998,-22.411 -27.665,-7.452L-19.344,-7.612C-12.505,-12.038 -18.051,-28.68 -16.608,-38.432C-9.939,-37.993 -7.432,-41.667 0,-40.46"
   style="fill:#f9f9f9;fill-rule:nonzero"
   id="path54" />
        </g>
        <g
   transform="matrix(1,0,0,1,399.93,697.632)"
   id="g60"
   style="fill:#f9f9f9">
            <path
   d="M0,-27.825C0.78,-20.917 -10.332,-25.748 -14.912,-24.12L-14.485,-1.909C-13.902,5.018 -3.55,1.517 0.623,4.635C-4.538,15.058 -26.964,8.821 -32.691,3.567C-36.551,-4.904 -30.136,-20.293 -39.906,-25.351C-39.945,-32.664 -32.113,-32.182 -35.241,-42.531L-16.937,-42.883C-14.115,-40.663 -16.202,-33.223 -13.378,-30.988C-8.344,-30.553 -0.471,-33.132 0,-27.825"
   style="fill:#f9f9f9;fill-rule:nonzero"
   id="path58" />
        </g>
        <g
   transform="matrix(1,0,0,1,323.481,689.343)"
   id="g64"
   style="fill:#f9f9f9">
            <path
   d="M0,-12.944C7.337,-4.504 27.25,-9.48 25.387,8.789C19.191,19.964 -12.376,21.359 -22.804,13.133C-20.931,11.062 -21.04,7.049 -21.337,2.849C-17.402,8.431 -4.709,12.338 3.722,7.498C-4.264,-1.853 -24.541,5.081 -23.263,-10.786C-22.191,-24.241 20.315,-34.303 24.96,-13.423C17.036,-12.589 6.493,-18.057 0,-12.944"
   style="fill:#f9f9f9;fill-rule:nonzero"
   id="path62" />
        </g>
    </g>
</svg>
