<svg width="80" height="24" viewBox="0 0 80 24" fill="none" xmlns="http://www.w3.org/2000/svg">
<path d="M15.1153 0C9.73349 0 5.37066 4.36283 5.37066 9.74466C5.37066 15.1265 9.73349 19.4893 15.1153 19.4893C20.4972 19.4893 24.86 15.1265 24.86 9.74466C24.86 4.36283 20.4972 0 15.1153 0Z" fill="#0E5BAA"/>
<path d="M5.78172 13.6286C5.34042 12.5724 4.12572 12.0708 3.06955 12.5121C2.00957 12.9534 1.51173 14.1681 1.95303 15.2242C2.28494 16.024 3.05446 16.503 3.86932 16.503C4.13323 16.503 4.40491 16.4501 4.6652 16.3407C5.72129 15.8994 6.22302 14.6847 5.78172 13.6286Z" fill="#0E5BAA"/>
<path d="M2.93752 11.8444C4.08422 11.8405 5.01215 10.9126 5.00853 9.76589C5.00853 8.61912 4.07671 7.69119 2.92994 7.69508C1.78324 7.69877 0.859131 8.6267 0.859131 9.7734C0.862821 10.9165 1.79075 11.8444 2.93383 11.8444H2.93752Z" fill="#0E5BAA"/>
<path d="M7.98087 16.9029C7.1699 16.0917 5.85332 16.0956 5.04604 16.9067C4.23508 17.7176 4.23896 19.0302 5.04993 19.8413C5.45736 20.245 5.98537 20.4448 6.51734 20.4448C7.04905 20.4448 7.57713 20.2411 7.98456 19.8375C8.79184 19.0227 8.79184 17.71 7.98087 16.9029Z" fill="#0E5BAA"/>
<path d="M11.2588 19.0906C10.1988 18.653 8.98802 19.1548 8.55035 20.2147C8.11294 21.2747 8.61446 22.4856 9.67451 22.9232C9.93473 23.0325 10.2027 23.0816 10.4666 23.0816C11.2815 23.0816 12.0547 22.5986 12.3866 21.7991C12.8242 20.7391 12.3188 19.5283 11.2588 19.0906Z" fill="#0E5BAA"/>
<path d="M15.1253 19.8488C13.9786 19.8527 13.0506 20.7806 13.0543 21.9273C13.0543 23.074 13.9822 24.002 15.129 23.9981C16.2757 23.9981 17.2037 23.0702 17.2037 21.9234C17.2 20.7767 16.2721 19.8487 15.1253 19.8488Z" fill="#0E5BAA"/>
<path d="M42.6518 0C37.27 0 32.9072 4.36283 32.9072 9.74466C32.9072 15.1265 37.27 19.4893 42.6518 19.4893C48.0337 19.4893 52.3965 15.1265 52.3965 9.74466C52.3965 4.36283 48.0337 0 42.6518 0Z" fill="#0E5BAA"/>
<path d="M33.3183 13.6286C32.877 12.5724 31.6623 12.0708 30.6061 12.5121C29.5461 12.9534 29.0483 14.1681 29.4896 15.2242C29.8215 16.024 30.591 16.503 31.4059 16.503C31.6698 16.503 31.9415 16.4501 32.2018 16.3407C33.2579 15.8994 33.7596 14.6847 33.3183 13.6286Z" fill="#0E5BAA"/>
<path d="M30.474 11.8444C31.6207 11.8405 32.5486 10.9126 32.545 9.76589C32.545 8.61912 31.6131 7.69119 30.4664 7.69508C29.3197 7.69877 28.3956 8.6267 28.3956 9.7734C28.3993 10.9165 29.3272 11.8444 30.4703 11.8444H30.474Z" fill="#0E5BAA"/>
<path d="M35.5174 16.9029C34.7065 16.0917 33.3899 16.0956 32.5826 16.9067C31.7716 17.7176 31.7755 19.0302 32.5865 19.8413C32.9939 20.245 33.5219 20.4448 34.0539 20.4448C34.5856 20.4448 35.1137 20.2411 35.5211 19.8375C36.3284 19.0227 36.3284 17.71 35.5174 16.9029Z" fill="#0E5BAA"/>
<path d="M38.7953 19.0906C37.7353 18.653 36.5245 19.1548 36.0868 20.2147C35.6494 21.2747 36.151 22.4856 37.211 22.9232C37.4712 23.0325 37.7392 23.0816 38.0032 23.0816C38.818 23.0816 39.5912 22.5986 39.9231 21.7991C40.3607 20.7391 39.8553 19.5283 38.7953 19.0906Z" fill="#0E5BAA"/>
<path d="M42.6618 19.8488C41.5151 19.8527 40.5871 20.7806 40.5908 21.9273C40.5908 23.074 41.5187 24.002 42.6655 23.9981C43.8123 23.9981 44.7402 23.0702 44.7402 21.9234C44.7364 20.7767 43.8085 19.8487 42.6618 19.8488Z" fill="#0E5BAA"/>
<path d="M70.1884 0C64.8066 0 60.4438 4.36283 60.4438 9.74466C60.4438 15.1265 64.8066 19.4893 70.1884 19.4893C75.5703 19.4893 79.9331 15.1265 79.9331 9.74466C79.9331 4.36283 75.5703 0 70.1884 0Z" fill="#0E5BAA"/>
<path d="M60.8548 13.6286C60.4135 12.5724 59.1988 12.0708 58.1427 12.5121C57.0827 12.9534 56.5848 14.1681 57.0261 15.2242C57.3581 16.024 58.1276 16.503 58.9425 16.503C59.2063 16.503 59.478 16.4501 59.7383 16.3407C60.7944 15.8994 61.2961 14.6847 60.8548 13.6286Z" fill="#0E5BAA"/>
<path d="M58.0105 11.8444C59.1572 11.8405 60.0852 10.9126 60.0815 9.76589C60.0815 8.61912 59.1496 7.69119 58.0029 7.69508C56.8562 7.69877 55.9321 8.6267 55.9321 9.7734C55.9358 10.9165 56.8638 11.8444 58.0068 11.8444H58.0105Z" fill="#0E5BAA"/>
<path d="M63.0539 16.9029C62.243 16.0917 60.9264 16.0956 60.1191 16.9067C59.3081 17.7176 59.312 19.0302 60.123 19.8413C60.5304 20.245 61.0585 20.4448 61.5904 20.4448C62.1221 20.4448 62.6502 20.2411 63.0576 19.8375C63.865 19.0227 63.865 17.71 63.0539 16.9029Z" fill="#0E5BAA"/>
<path d="M66.3318 19.0906C65.2718 18.653 64.061 19.1548 63.6233 20.2147C63.1859 21.2747 63.6875 22.4856 64.7474 22.9232C65.0077 23.0325 65.2757 23.0816 65.5397 23.0816C66.3545 23.0816 67.1277 22.5986 67.4596 21.7991C67.8972 20.7391 67.3918 19.5283 66.3318 19.0906Z" fill="#0E5BAA"/>
<path d="M70.1987 19.8488C69.0519 19.8526 68.124 20.7806 68.1276 21.9273C68.1276 23.074 69.0555 24.0019 70.2024 23.9981C71.3491 23.9981 72.277 23.0702 72.277 21.9234C72.2733 20.7767 71.3454 19.8488 70.1987 19.8488Z" fill="#0E5BAA"/>
<path d="M16.8795 12.3478V11.1733C16.8795 10.7838 16.5637 10.468 16.1742 10.468H13.4225V13.053H16.1742C16.5637 13.053 16.8795 12.7373 16.8795 12.3478ZM16.8795 8.47033V7.29595C16.8795 6.90644 16.5637 6.59074 16.1742 6.59074H13.4225V9.1756H16.1742C16.5637 9.1756 16.8795 8.85983 16.8795 8.47033ZM11.6941 14.3454V5.29828H16.8795C17.3565 5.29828 17.7616 5.42611 18.0948 5.68192C18.4368 5.931 18.6078 6.23392 18.6078 6.59074V8.52943C18.6078 8.89284 18.4368 9.19932 18.0948 9.4482C18.0678 9.46843 18.0407 9.48537 18.0137 9.49861C18.0407 9.51891 18.0678 9.53914 18.0948 9.55924C18.4368 9.80845 18.6078 10.1114 18.6078 10.468V13.053C18.6078 13.4165 18.4368 13.7229 18.0948 13.972C17.7616 14.221 17.3565 14.3454 16.8795 14.3454H11.6941Z" fill="white"/>
<path d="M40.9943 14.3454C40.5227 14.3454 40.1252 14.2209 39.8021 13.972C39.4789 13.7229 39.3174 13.4164 39.3174 13.053V12.1378L40.9943 11.7606V13.053H44.3486V10.468H40.9943C40.5227 10.468 40.1252 10.3437 39.8021 10.0944C39.4789 9.84542 39.3174 9.53914 39.3174 9.17553V6.59067C39.3174 6.23392 39.4789 5.93094 39.8021 5.68192C40.1252 5.42611 40.5227 5.29828 40.9943 5.29828H44.3486C44.8114 5.29828 45.2045 5.42611 45.5278 5.68192C45.8596 5.93094 46.0256 6.23392 46.0256 6.59067V7.50589L44.3486 7.88314V6.59067H40.9943V9.17553H44.3486C44.8114 9.17553 45.2045 9.30357 45.5278 9.55924C45.8596 9.80839 46.0256 10.1114 46.0256 10.468V13.053C46.0256 13.4164 45.8596 13.7229 45.5278 13.972C45.2045 14.2209 44.8114 14.3454 44.3486 14.3454H40.9943Z" fill="white"/>
<path d="M68.6176 14.3454C68.1458 14.3454 67.7484 14.2209 67.4253 13.972C67.1021 13.7229 66.9406 13.4164 66.9406 13.053V12.1378L68.6176 11.7606V13.053H71.9718V10.468H68.6176C68.1458 10.468 67.7484 10.3437 67.4253 10.0944C67.1021 9.84542 66.9406 9.53914 66.9406 9.17553V6.59067C66.9406 6.23392 67.1021 5.93094 67.4253 5.68192C67.7484 5.42611 68.1458 5.29828 68.6176 5.29828H71.9718C72.4346 5.29828 72.8277 5.42611 73.1509 5.68192C73.4828 5.93094 73.6488 6.23392 73.6488 6.59067V7.50589L71.9718 7.88314V6.59067H68.6176V9.17553H71.9718C72.4346 9.17553 72.8277 9.30357 73.1509 9.55924C73.4828 9.80839 73.6488 10.1114 73.6488 10.468V13.053C73.6488 13.4164 73.4828 13.7229 73.1509 13.972C72.8277 14.2209 72.4346 14.3454 71.9718 14.3454H68.6176Z" fill="white"/>
</svg>
