<svg width="53" height="24" viewBox="0 0 53 24" fill="none" xmlns="http://www.w3.org/2000/svg">
<path d="M6.21238 8.96039V12.488H2.5759V8.96039H0.60318V18.2106H2.5759V14.4535H6.21238V18.2106H8.1851V8.96039H6.21238Z" fill="#818285"/>
<path d="M29.6659 8.96039H27.6931V18.2106H29.6659V15.9898L35.4431 18.4245V15.9622L29.9751 13.8106C29.8592 13.765 29.8572 13.6016 29.972 13.5533L35.4431 11.2476V8.96039L29.6659 11.2337V8.96039Z" fill="#818285"/>
<path d="M36.4438 11.9764V18.2106H38.4165V14.4535H44.0337V12.488H38.4165V12.1094C38.4165 11.4418 38.9576 10.9006 39.6253 10.9006H44.0337V8.96039H39.4598C37.7941 8.96039 36.4438 10.3107 36.4438 11.9764Z" fill="#818285"/>
<path d="M50.7992 8.96039V14.4546C50.7992 15.3446 50.0777 16.0661 49.1877 16.0661H48.5214C47.6314 16.0661 46.9099 15.3446 46.9099 14.4546V8.96039H44.9373V14.8539C44.9373 16.7077 46.4401 18.2106 48.294 18.2106H49.4153C51.2692 18.2106 52.772 16.7077 52.772 14.8539V8.96039H50.7992Z" fill="#818285"/>
<path d="M13.6588 8.85959C12.7363 8.85959 12.1249 9.26277 11.8242 10.0691L8.83163 18.2106H11.2677L13.5878 11.2137C13.6199 11.1194 13.7534 11.12 13.7846 11.2145L16.0349 18.2106H18.471L15.4784 10.0691C15.1777 9.26277 14.571 8.85959 13.6588 8.85959Z" fill="#818285"/>
<path d="M26.7963 14.1789C26.7963 13.8597 26.6422 13.5404 26.334 13.2215C25.877 12.751 25.1919 12.5159 24.2785 12.5159H21.3526C20.9526 12.4821 20.753 12.3057 20.753 11.9867V10.9258H26.6344V8.96039H18.6351V12.3872C18.6351 12.9751 18.8634 13.4456 19.3204 13.7983C19.7769 14.1511 20.3653 14.3275 21.0846 14.3275L24.2582 14.3527C24.6693 14.3527 24.6959 14.5204 24.6959 14.8566V15.5369C24.6959 15.8559 24.6749 16.22 24.2753 16.2704H21.1734C20.7738 16.22 20.7529 15.8559 20.7529 15.5369V15.4112H18.6422L18.6352 16.2452C18.6351 16.2539 18.6362 16.2618 18.6362 16.2704C18.6373 17.5634 19.5726 18.2106 21.4443 18.2106H23.8254C25.6971 18.2106 26.8114 17.5634 26.8125 16.2704C26.8125 16.2618 26.8136 16.2539 26.8135 16.2452L26.8066 15.4112L26.7963 14.1789Z" fill="#818285"/>
<path d="M2.65991 21.7282C2.65991 21.7912 2.65756 21.8428 2.65274 21.883C2.64795 21.9232 2.64078 21.9547 2.63122 21.9774C2.62161 22.0002 2.60904 22.0159 2.59357 22.0247C2.57787 22.0334 2.55822 22.0378 2.53427 22.0378C2.5151 22.0378 2.49362 22.0347 2.46967 22.0286C2.44576 22.0225 2.41884 22.0159 2.38893 22.0089C2.35894 22.0019 2.32607 21.9954 2.2902 21.9893C2.2543 21.9831 2.21486 21.9801 2.17174 21.9801C2.12148 21.9801 2.07127 21.9875 2.02101 22.0024C1.97071 22.0172 1.91868 22.0404 1.86481 22.0719C1.81099 22.1034 1.75473 22.1453 1.69617 22.1978C1.63748 22.2503 1.57462 22.315 1.50771 22.3919V23.8504C1.50771 23.8679 1.5005 23.8832 1.48611 23.8963C1.47176 23.9094 1.4472 23.9203 1.41259 23.9291C1.37786 23.9378 1.33182 23.9444 1.27435 23.9488C1.21692 23.9532 1.14388 23.9553 1.05541 23.9553C0.96681 23.9553 0.893904 23.9532 0.836475 23.9488C0.779002 23.9444 0.73292 23.9378 0.698184 23.9291C0.663491 23.9203 0.639016 23.9094 0.624669 23.8963C0.610323 23.8832 0.603149 23.8679 0.603149 23.8504V21.5105C0.603149 21.4931 0.609105 21.4777 0.621104 21.4646C0.632973 21.4515 0.654579 21.4406 0.685707 21.4318C0.716747 21.4231 0.756874 21.4165 0.805913 21.4121C0.854995 21.4078 0.916641 21.4056 0.990764 21.4056C1.06737 21.4056 1.13079 21.4078 1.18105 21.4121C1.23135 21.4165 1.27017 21.4231 1.29769 21.4318C1.32517 21.4406 1.3449 21.4515 1.3569 21.4646C1.36886 21.4777 1.3749 21.4931 1.3749 21.5105V21.8017C1.45859 21.7142 1.53754 21.6421 1.61179 21.5853C1.68592 21.5284 1.75656 21.4834 1.82355 21.4502C1.89055 21.417 1.95758 21.3938 2.02458 21.3807C2.09157 21.3675 2.15852 21.361 2.2256 21.361C2.25664 21.361 2.2902 21.3623 2.32607 21.365C2.36198 21.3675 2.39906 21.3719 2.43736 21.378C2.47558 21.3842 2.50918 21.3912 2.53783 21.3991C2.56661 21.4069 2.58752 21.4152 2.6007 21.424C2.61383 21.4327 2.62343 21.4423 2.62939 21.4528C2.63535 21.4633 2.64078 21.4777 2.64556 21.4961C2.65039 21.5144 2.65395 21.542 2.6563 21.5787C2.65869 21.6154 2.65991 21.6653 2.65991 21.7282Z" fill="#818285"/>
<path d="M4.58034 20.3616C4.59703 20.3424 4.61742 20.3258 4.64129 20.3118C4.66524 20.2978 4.69515 20.2868 4.73106 20.279C4.76693 20.2711 4.8124 20.2655 4.86748 20.2619C4.92248 20.2585 4.98947 20.2567 5.06851 20.2567C5.1785 20.2567 5.26523 20.2602 5.3287 20.2672C5.39213 20.2741 5.4376 20.2842 5.46512 20.2973C5.49256 20.3104 5.50516 20.3258 5.50282 20.3433C5.50038 20.3607 5.48847 20.3791 5.46686 20.3984L4.77054 21.0069C4.75137 21.0244 4.73224 21.0388 4.71307 21.0502C4.69389 21.0616 4.66942 21.0708 4.63951 21.0778C4.60951 21.0848 4.57186 21.09 4.52647 21.0935C4.481 21.097 4.42357 21.0987 4.3541 21.0987C4.27037 21.0987 4.20398 21.0961 4.15494 21.0909C4.10586 21.0856 4.07178 21.0773 4.05265 21.0659C4.03348 21.0546 4.0257 21.0401 4.0293 21.0226C4.03287 21.0052 4.04548 20.9851 4.06695 20.9623L4.58034 20.3616ZM4.89618 22.8562H4.55156C4.40553 22.8562 4.28111 22.8641 4.17829 22.8799C4.07539 22.8956 3.99161 22.9192 3.92697 22.9507C3.86236 22.9821 3.81506 23.0202 3.78524 23.0648C3.75524 23.1094 3.74029 23.1606 3.74029 23.2183C3.74029 23.3162 3.78281 23.3931 3.8678 23.4491C3.95266 23.5051 4.07056 23.533 4.22129 23.533C4.34819 23.533 4.46483 23.5094 4.5713 23.4622C4.67772 23.415 4.78606 23.3459 4.89618 23.255V22.8562ZM5.78279 23.8583C5.78279 23.8828 5.77083 23.9021 5.74688 23.916C5.72297 23.93 5.68523 23.9401 5.6338 23.9462C5.58229 23.9523 5.50638 23.9554 5.40582 23.9554C5.29823 23.9554 5.21976 23.9523 5.1708 23.9462C5.12168 23.9401 5.08694 23.93 5.06668 23.916C5.04629 23.9021 5.03616 23.8828 5.03616 23.8583V23.672C4.90457 23.7752 4.75441 23.8557 4.58569 23.9134C4.41701 23.9711 4.22972 24 4.02396 24C3.85397 24 3.69781 23.9837 3.55544 23.9514C3.4131 23.9191 3.28981 23.871 3.18578 23.8072C3.08161 23.7433 3.00093 23.6642 2.94345 23.5697C2.88602 23.4753 2.85733 23.3652 2.85733 23.2392C2.85733 23.1028 2.8938 22.9844 2.9668 22.8838C3.03975 22.7833 3.14861 22.7002 3.29338 22.6346C3.43823 22.569 3.61834 22.5205 3.83367 22.489C4.04904 22.4575 4.29902 22.4418 4.5839 22.4418H4.89618V22.3002C4.89618 22.2267 4.88592 22.1624 4.86562 22.1073C4.84527 22.0523 4.81179 22.0063 4.76515 21.9696C4.7185 21.9329 4.65624 21.9058 4.57851 21.8883C4.50065 21.8708 4.4044 21.8621 4.2895 21.8621C4.13877 21.8621 4.00422 21.8743 3.88571 21.8988C3.76724 21.9233 3.66256 21.9504 3.57161 21.9801C3.48071 22.0099 3.40471 22.0369 3.34367 22.0615C3.28264 22.0859 3.23299 22.0981 3.19478 22.0981C3.16834 22.0981 3.145 22.0921 3.12474 22.0798C3.10435 22.0675 3.08757 22.0501 3.07444 22.0273C3.06135 22.0046 3.05109 21.9766 3.04392 21.9434C3.03679 21.9102 3.03318 21.8734 3.03318 21.8332C3.03318 21.779 3.03914 21.7361 3.05109 21.7047C3.06309 21.6732 3.08583 21.6448 3.11931 21.6195C3.15282 21.5941 3.21147 21.5661 3.29524 21.5355C3.37902 21.5049 3.47714 21.4765 3.58956 21.4503C3.70199 21.424 3.82467 21.4026 3.95749 21.386C4.09034 21.3694 4.22724 21.361 4.36853 21.361C4.61977 21.361 4.83453 21.379 5.01282 21.4148C5.19111 21.4507 5.3377 21.5057 5.45252 21.5801C5.56742 21.6544 5.65111 21.7501 5.70384 21.8673C5.7564 21.9845 5.78279 22.1235 5.78279 22.2844V23.8583Z" fill="#818285"/>
<path d="M8.82315 22.287C8.69399 22.1681 8.57009 22.0772 8.45171 22.0142C8.33324 21.9513 8.20942 21.9198 8.08018 21.9198C7.96284 21.9198 7.86176 21.9412 7.77686 21.984C7.69187 22.0269 7.62365 22.0842 7.57227 22.1558C7.52075 22.2276 7.48254 22.3076 7.45732 22.3959C7.43224 22.4842 7.41967 22.5747 7.41967 22.6674C7.41967 22.7653 7.43041 22.8606 7.45202 22.9533C7.47354 23.046 7.50875 23.1286 7.55788 23.2012C7.60687 23.2738 7.67209 23.3319 7.75351 23.3756C7.83485 23.4194 7.93776 23.4412 8.06218 23.4412C8.12443 23.4412 8.18482 23.4346 8.24351 23.4215C8.30211 23.4085 8.36193 23.387 8.42293 23.3573C8.48396 23.3276 8.54678 23.2886 8.61139 23.2406C8.67599 23.1924 8.74655 23.1334 8.82315 23.0635V22.287ZM9.72054 23.8505C9.72054 23.8697 9.71458 23.8858 9.70259 23.899C9.69063 23.9121 9.67033 23.923 9.64159 23.9318C9.6129 23.9405 9.57399 23.9466 9.52495 23.9501C9.47587 23.9536 9.41548 23.9554 9.34366 23.9554C9.26706 23.9554 9.20481 23.9536 9.15699 23.9501C9.10908 23.9466 9.07025 23.9405 9.04034 23.9318C9.01043 23.923 8.98887 23.9121 8.97574 23.899C8.96253 23.8858 8.95596 23.8697 8.95596 23.8505V23.5907C8.79089 23.7202 8.61791 23.8207 8.43727 23.8924C8.25664 23.9641 8.05622 24 7.83603 24C7.59201 24 7.38555 23.9654 7.21691 23.8964C7.04815 23.8273 6.91051 23.7341 6.80408 23.617C6.69757 23.4998 6.6204 23.363 6.57254 23.2064C6.52463 23.0499 6.50076 22.8851 6.50076 22.712C6.50076 22.5039 6.53128 22.3168 6.59232 22.1506C6.65336 21.9845 6.74244 21.8428 6.85968 21.7257C6.97698 21.6085 7.12292 21.5184 7.2976 21.4555C7.47232 21.3925 7.67335 21.361 7.90067 21.361C8.08018 21.361 8.2429 21.3877 8.38884 21.441C8.53478 21.4944 8.67955 21.5726 8.82315 21.6758V20.4088C8.82315 20.3914 8.82971 20.3756 8.84293 20.3616C8.85601 20.3476 8.88001 20.3358 8.9147 20.3262C8.9494 20.3166 8.99548 20.3091 9.05295 20.3039C9.11038 20.2987 9.18333 20.296 9.27189 20.296C9.36036 20.296 9.43339 20.2987 9.49082 20.3039C9.5483 20.3091 9.59368 20.3166 9.62725 20.3262C9.66072 20.3358 9.68467 20.3476 9.69902 20.3616C9.71337 20.3756 9.72054 20.3914 9.72054 20.4088V23.8505Z" fill="#818285"/>
<path d="M11.5333 23.8505C11.5333 23.8679 11.526 23.8832 11.5117 23.8964C11.4974 23.9094 11.4728 23.9204 11.4382 23.9291C11.4035 23.9379 11.3574 23.9444 11.2999 23.9488C11.2425 23.9532 11.1694 23.9554 11.081 23.9554C10.9924 23.9554 10.9195 23.9532 10.862 23.9488C10.8046 23.9444 10.7585 23.9379 10.7238 23.9291C10.6891 23.9204 10.6646 23.9094 10.6502 23.8964C10.6359 23.8832 10.6287 23.8679 10.6287 23.8505V21.5158C10.6287 21.4983 10.6359 21.483 10.6502 21.4699C10.6646 21.4568 10.6891 21.4454 10.7238 21.4358C10.7585 21.4262 10.8046 21.4187 10.862 21.4135C10.9195 21.4083 10.9924 21.4056 11.081 21.4056C11.1694 21.4056 11.2425 21.4083 11.2999 21.4135C11.3574 21.4187 11.4035 21.4262 11.4382 21.4358C11.4728 21.4454 11.4974 21.4568 11.5117 21.4699C11.526 21.483 11.5333 21.4983 11.5333 21.5158V23.8505ZM11.6015 20.7184C11.6015 20.8513 11.5643 20.9431 11.4902 20.9938C11.4159 21.0445 11.2784 21.0699 11.0774 21.0699C10.874 21.0699 10.737 21.0454 10.6664 20.9964C10.5958 20.9475 10.5605 20.8591 10.5605 20.7315C10.5605 20.5985 10.5969 20.5063 10.67 20.4547C10.7429 20.4031 10.8812 20.3773 11.0845 20.3773C11.2856 20.3773 11.422 20.4023 11.4938 20.4521C11.5655 20.502 11.6015 20.5907 11.6015 20.7184Z" fill="#818285"/>
<path d="M14.1321 20.3616C14.1488 20.3424 14.1692 20.3258 14.1932 20.3118C14.217 20.2978 14.247 20.2868 14.2828 20.279C14.3188 20.2711 14.3642 20.2655 14.4193 20.2619C14.4743 20.2585 14.5413 20.2567 14.6203 20.2567C14.7304 20.2567 14.8171 20.2602 14.8805 20.2672C14.9439 20.2741 14.9894 20.2842 15.017 20.2973C15.0445 20.3104 15.0569 20.3258 15.0546 20.3433C15.0523 20.3607 15.0403 20.3791 15.0188 20.3984L14.3224 21.0069C14.3032 21.0244 14.2841 21.0388 14.2649 21.0502C14.2458 21.0616 14.2212 21.0708 14.1913 21.0778C14.1614 21.0848 14.1237 21.09 14.0783 21.0935C14.0328 21.097 13.9754 21.0987 13.906 21.0987C13.8222 21.0987 13.7558 21.0961 13.7067 21.0909C13.6577 21.0856 13.6236 21.0773 13.6044 21.0659C13.5853 21.0546 13.5776 21.0401 13.5812 21.0226C13.5847 21.0052 13.5973 20.9851 13.6189 20.9623L14.1321 20.3616ZM14.7424 22.6831C14.7424 22.5677 14.7298 22.4615 14.7047 22.3644C14.6795 22.2673 14.637 22.183 14.5772 22.1113C14.5174 22.0396 14.4378 21.9836 14.3386 21.9434C14.2392 21.9032 14.1142 21.883 13.9634 21.883C13.8294 21.883 13.7122 21.901 13.6117 21.9368C13.5111 21.9727 13.4286 22.0252 13.364 22.0942C13.2994 22.1633 13.2509 22.2464 13.2186 22.3434C13.1863 22.4405 13.1701 22.5511 13.1701 22.6753C13.1701 22.7907 13.1832 22.8969 13.2096 22.994C13.2359 23.091 13.2784 23.1754 13.337 23.2471C13.3956 23.3188 13.4753 23.3743 13.5757 23.4137C13.6762 23.453 13.8006 23.4727 13.9491 23.4727C14.0854 23.4727 14.2039 23.4548 14.3045 23.4189C14.4049 23.3831 14.4875 23.3311 14.5521 23.2628C14.6167 23.1946 14.6646 23.112 14.6957 23.015C14.7268 22.9179 14.7424 22.8073 14.7424 22.6831ZM15.672 22.6569C15.672 22.8562 15.6362 23.0381 15.5644 23.2025C15.4926 23.3669 15.3837 23.5086 15.2377 23.6275C15.0917 23.7464 14.9087 23.8382 14.6885 23.9029C14.4683 23.9676 14.2111 24 13.9168 24C13.632 24 13.3842 23.9711 13.1737 23.9134C12.9631 23.8557 12.7884 23.7717 12.6497 23.6616C12.5108 23.5514 12.4079 23.4159 12.3409 23.255C12.274 23.0941 12.2405 22.9105 12.2405 22.7041C12.2405 22.5048 12.277 22.3225 12.3499 22.1572C12.4229 21.9919 12.5324 21.8503 12.6783 21.7322C12.8243 21.6142 13.0068 21.5228 13.2257 21.4581C13.4448 21.3934 13.7014 21.361 13.9957 21.361C14.2828 21.361 14.5317 21.3895 14.7424 21.4463C14.9529 21.5032 15.127 21.5867 15.2646 21.6968C15.4022 21.807 15.5045 21.9425 15.5716 22.1034C15.6385 22.2643 15.672 22.4488 15.672 22.6569Z" fill="#818285"/>
<path d="M18.2278 22.8562H17.8832C17.7372 22.8562 17.6127 22.8641 17.5099 22.8798C17.407 22.8956 17.3232 22.9192 17.2586 22.9507C17.194 22.9821 17.1467 23.0202 17.1169 23.0648C17.0869 23.1094 17.0719 23.1605 17.0719 23.2182C17.0719 23.3162 17.1144 23.3931 17.1994 23.4491C17.2843 23.505 17.4022 23.533 17.5529 23.533C17.6798 23.533 17.7964 23.5094 17.9029 23.4622C18.0094 23.415 18.1177 23.3459 18.2278 23.255V22.8562ZM19.1144 23.8583C19.1144 23.8828 19.1024 23.902 19.0785 23.916C19.0546 23.93 19.0168 23.9401 18.9654 23.9462C18.9139 23.9523 18.838 23.9553 18.7375 23.9553C18.6298 23.9553 18.5514 23.9523 18.5024 23.9462C18.4533 23.9401 18.4186 23.93 18.3983 23.916C18.3779 23.902 18.3678 23.8828 18.3678 23.8583V23.6721C18.2362 23.7752 18.086 23.8557 17.9173 23.9134C17.7486 23.9711 17.5613 24 17.3556 24C17.1856 24 17.0294 23.9838 16.8871 23.9514C16.7447 23.919 16.6214 23.871 16.5174 23.8071C16.4132 23.7433 16.3325 23.6642 16.2751 23.5697C16.2176 23.4753 16.189 23.3651 16.189 23.2392C16.189 23.1028 16.2254 22.9843 16.2984 22.8838C16.3713 22.7832 16.4802 22.7002 16.625 22.6346C16.7698 22.569 16.9499 22.5205 17.1653 22.489C17.3807 22.4575 17.6307 22.4418 17.9155 22.4418H18.2278V22.3002C18.2278 22.2267 18.2176 22.1624 18.1973 22.1073C18.1769 22.0523 18.1434 22.0063 18.0968 21.9696C18.0501 21.9329 17.9878 21.9058 17.9101 21.8883C17.8323 21.8708 17.736 21.8621 17.6211 21.8621C17.4704 21.8621 17.3358 21.8743 17.2173 21.8988C17.0988 21.9233 16.9942 21.9504 16.9032 21.9801C16.8123 22.0098 16.7363 22.0369 16.6753 22.0614C16.6143 22.0859 16.5646 22.0982 16.5264 22.0982C16.5 22.0982 16.4766 22.092 16.4563 22.0798C16.436 22.0675 16.4192 22.05 16.4061 22.0274C16.3929 22.0046 16.3827 21.9766 16.3756 21.9434C16.3684 21.9101 16.3648 21.8735 16.3648 21.8332C16.3648 21.779 16.3707 21.7361 16.3827 21.7047C16.3947 21.6732 16.4174 21.6448 16.4509 21.6194C16.4844 21.5941 16.5431 21.5661 16.6268 21.5355C16.7106 21.5049 16.8087 21.4764 16.9212 21.4502C17.0336 21.424 17.1563 21.4025 17.2891 21.386C17.4219 21.3694 17.5589 21.361 17.7002 21.361C17.9514 21.361 18.1661 21.379 18.3444 21.4148C18.5227 21.4507 18.6693 21.5057 18.7842 21.5801C18.8991 21.6544 18.9827 21.7502 19.0354 21.8673C19.088 21.9845 19.1144 22.1235 19.1144 22.2844V23.8583Z" fill="#818285"/>
<path d="M25.1089 23.8504C25.1089 23.8679 25.1017 23.8832 25.0873 23.8963C25.073 23.9094 25.0491 23.9203 25.0156 23.9291C24.982 23.9379 24.9366 23.9444 24.8791 23.9488C24.8217 23.9532 24.7487 23.9553 24.6602 23.9553C24.5692 23.9553 24.4951 23.9532 24.4376 23.9488C24.3802 23.9444 24.3341 23.9379 24.2994 23.9291C24.2647 23.9203 24.2408 23.9094 24.2276 23.8963C24.2144 23.8832 24.2079 23.8679 24.2079 23.8504V22.4627C24.2079 22.3841 24.1977 22.3124 24.1774 22.2477C24.157 22.183 24.1259 22.1274 24.0841 22.0811C24.0422 22.0347 23.9894 21.9989 23.9261 21.9735C23.8627 21.9482 23.7867 21.9355 23.6982 21.9355C23.5905 21.9355 23.4816 21.9661 23.3715 22.0273C23.2614 22.0885 23.1418 22.1777 23.0126 22.2949V23.8504C23.0126 23.8679 23.0054 23.8832 22.9911 23.8963C22.9767 23.9094 22.9521 23.9203 22.9175 23.9291C22.8827 23.9379 22.8366 23.9444 22.7792 23.9488C22.7219 23.9532 22.6501 23.9553 22.5638 23.9553C22.4754 23.9553 22.4024 23.9532 22.3449 23.9488C22.2875 23.9444 22.2414 23.9379 22.2067 23.9291C22.1721 23.9203 22.1475 23.9094 22.1331 23.8963C22.1188 23.8832 22.1116 23.8679 22.1116 23.8504V22.4627C22.1116 22.3841 22.1014 22.3124 22.0811 22.2477C22.0607 22.183 22.0302 22.1274 21.9896 22.0811C21.9488 22.0347 21.8963 21.9989 21.8317 21.9735C21.767 21.9482 21.6916 21.9355 21.6055 21.9355C21.4953 21.9355 21.3853 21.9661 21.2753 22.0273C21.1652 22.0885 21.0467 22.1777 20.9199 22.2949V23.8504C20.9199 23.8679 20.9127 23.8832 20.8983 23.8963C20.884 23.9094 20.8594 23.9203 20.8248 23.9291C20.7901 23.9379 20.744 23.9444 20.6865 23.9488C20.6291 23.9532 20.5561 23.9553 20.4676 23.9553C20.379 23.9553 20.3061 23.9532 20.2486 23.9488C20.1912 23.9444 20.1451 23.9379 20.1104 23.9291C20.0757 23.9203 20.0512 23.9094 20.0369 23.8963C20.0225 23.8832 20.0154 23.8679 20.0154 23.8504V21.5106C20.0154 21.4931 20.0213 21.4778 20.0333 21.4646C20.0452 21.4515 20.0668 21.4406 20.0979 21.4318C20.1289 21.4231 20.1691 21.4166 20.2181 21.4122C20.2672 21.4078 20.3288 21.4056 20.403 21.4056C20.4796 21.4056 20.543 21.4078 20.5933 21.4122C20.6435 21.4166 20.6823 21.4231 20.7099 21.4318C20.7373 21.4406 20.7571 21.4515 20.7691 21.4646C20.7811 21.4778 20.7871 21.4931 20.7871 21.5106V21.7808C20.9642 21.6408 21.1406 21.5359 21.3165 21.4659C21.4924 21.396 21.676 21.361 21.8675 21.361C21.9991 21.361 22.1176 21.3711 22.2228 21.3912C22.3281 21.4113 22.4221 21.4402 22.5047 21.4778C22.5872 21.5154 22.6584 21.5604 22.7183 21.6128C22.778 21.6653 22.8283 21.7239 22.869 21.7886C22.9647 21.7134 23.0586 21.6487 23.1507 21.5945C23.2429 21.5403 23.3339 21.4961 23.4235 21.4621C23.5134 21.4279 23.6031 21.4025 23.6928 21.386C23.7825 21.3694 23.8741 21.361 23.9674 21.361C24.1803 21.361 24.3598 21.3873 24.5058 21.4397C24.6517 21.4922 24.7697 21.5635 24.8594 21.6535C24.9491 21.7436 25.0131 21.8489 25.0514 21.9696C25.0897 22.0903 25.1089 22.2179 25.1089 22.3526V23.8504Z" fill="#818285"/>
<path d="M27.837 22.8562H27.4923C27.3464 22.8562 27.2219 22.8641 27.1191 22.8798C27.0162 22.8956 26.9324 22.9192 26.8678 22.9507C26.8032 22.9821 26.7558 23.0202 26.726 23.0648C26.696 23.1094 26.6811 23.1605 26.6811 23.2182C26.6811 23.3162 26.7236 23.3931 26.8086 23.4491C26.8935 23.505 27.0114 23.533 27.1621 23.533C27.289 23.533 27.4056 23.5094 27.5121 23.4622C27.6185 23.415 27.7269 23.3459 27.837 23.255V22.8562ZM28.7236 23.8583C28.7236 23.8828 28.7116 23.902 28.6876 23.916C28.6638 23.93 28.626 23.9401 28.5746 23.9462C28.5231 23.9523 28.4472 23.9553 28.3467 23.9553C28.239 23.9553 28.1605 23.9523 28.1116 23.9462C28.0625 23.9401 28.0278 23.93 28.0075 23.916C27.9871 23.902 27.9769 23.8828 27.9769 23.8583V23.6721C27.8454 23.7752 27.6952 23.8557 27.5264 23.9134C27.3578 23.9711 27.1705 24 26.9648 24C26.7948 24 26.6386 23.9838 26.4963 23.9514C26.3539 23.919 26.2306 23.871 26.1266 23.8071C26.0224 23.7433 25.9417 23.6642 25.8843 23.5697C25.8268 23.4753 25.7982 23.3651 25.7982 23.2392C25.7982 23.1028 25.8346 22.9843 25.9076 22.8838C25.9805 22.7832 26.0894 22.7002 26.2342 22.6346C26.379 22.569 26.5591 22.5205 26.7745 22.489C26.9899 22.4575 27.2398 22.4418 27.5247 22.4418H27.837V22.3002C27.837 22.2267 27.8267 22.1624 27.8064 22.1073C27.7861 22.0523 27.7526 22.0063 27.706 21.9696C27.6593 21.9329 27.597 21.9058 27.5193 21.8883C27.4415 21.8708 27.3452 21.8621 27.2303 21.8621C27.0796 21.8621 26.945 21.8743 26.8265 21.8988C26.708 21.9233 26.6034 21.9504 26.5124 21.9801C26.4215 22.0098 26.3455 22.0369 26.2845 22.0614C26.2235 22.0859 26.1738 22.0982 26.1356 22.0982C26.1092 22.0982 26.0858 22.092 26.0655 22.0798C26.0452 22.0675 26.0284 22.05 26.0153 22.0274C26.0021 22.0046 25.9919 21.9766 25.9847 21.9434C25.9776 21.9101 25.974 21.8735 25.974 21.8332C25.974 21.779 25.9799 21.7361 25.9919 21.7047C26.0039 21.6732 26.0266 21.6448 26.0601 21.6194C26.0936 21.5941 26.1523 21.5661 26.236 21.5355C26.3198 21.5049 26.4179 21.4764 26.5303 21.4502C26.6428 21.424 26.7655 21.4025 26.8983 21.386C27.0311 21.3694 27.168 21.361 27.3094 21.361C27.5606 21.361 27.7753 21.379 27.9536 21.4148C28.1319 21.4507 28.2785 21.5057 28.3933 21.5801C28.5082 21.6544 28.5919 21.7502 28.6446 21.8673C28.6972 21.9845 28.7236 22.1235 28.7236 22.2844V23.8583Z" fill="#818285"/>
<path d="M31.4516 23.6196C31.4516 23.6966 31.445 23.7556 31.4319 23.7966C31.4186 23.8378 31.4013 23.8666 31.3798 23.8832C31.3583 23.8998 31.3266 23.9147 31.2847 23.9278C31.2428 23.9409 31.1938 23.9523 31.1375 23.9619C31.0813 23.9715 31.0202 23.979 30.9544 23.9842C30.8886 23.9894 30.8222 23.9921 30.7552 23.9921C30.5758 23.9921 30.4202 23.9755 30.2886 23.9422C30.157 23.909 30.0481 23.8578 29.9619 23.7888C29.8758 23.7197 29.8124 23.6327 29.7717 23.5278C29.731 23.4228 29.7107 23.2987 29.7107 23.1553V21.9565H29.3266C29.2811 21.9565 29.2464 21.9359 29.2226 21.8948C29.1986 21.8537 29.1866 21.7851 29.1866 21.6889C29.1866 21.6382 29.1896 21.5953 29.1956 21.5604C29.2016 21.5254 29.2105 21.4979 29.2226 21.4777C29.2344 21.4576 29.2495 21.4432 29.2674 21.4345C29.2853 21.4257 29.3062 21.4214 29.3301 21.4214H29.7107V20.8993C29.7107 20.8818 29.7172 20.8661 29.7305 20.8521C29.7436 20.8381 29.7675 20.8264 29.8023 20.8167C29.8368 20.8071 29.8836 20.8001 29.9422 20.7957C30.0008 20.7914 30.0732 20.7892 30.1593 20.7892C30.2478 20.7892 30.3214 20.7914 30.3801 20.7957C30.4387 20.8001 30.4848 20.8071 30.5183 20.8167C30.5518 20.8264 30.5758 20.8381 30.5901 20.8521C30.6045 20.8661 30.6117 20.8818 30.6117 20.8993V21.4214H31.308C31.3319 21.4214 31.3529 21.4257 31.3708 21.4345C31.3889 21.4432 31.4037 21.4576 31.4157 21.4777C31.4276 21.4979 31.4366 21.5254 31.4426 21.5604C31.4486 21.5953 31.4516 21.6382 31.4516 21.6889C31.4516 21.7851 31.4396 21.8537 31.4157 21.8948C31.3917 21.9359 31.357 21.9565 31.3116 21.9565H30.6117V23.0556C30.6117 23.1833 30.6392 23.279 30.6942 23.3429C30.7492 23.4067 30.8474 23.4386 30.9886 23.4386C31.0363 23.4386 31.0795 23.4355 31.1178 23.4294C31.1561 23.4233 31.1901 23.4163 31.2201 23.4085C31.25 23.4005 31.275 23.3935 31.2954 23.3874C31.3157 23.3813 31.3343 23.3782 31.351 23.3782C31.3655 23.3782 31.3792 23.3813 31.3924 23.3874C31.4055 23.3935 31.4157 23.4058 31.4229 23.4241C31.4301 23.4425 31.4366 23.4674 31.4426 23.4989C31.4486 23.5304 31.4516 23.5706 31.4516 23.6196Z" fill="#818285"/>
<path d="M34.5637 21.0699C34.5446 21.0856 34.5243 21.0979 34.5027 21.1066C34.4812 21.1153 34.4561 21.1219 34.4273 21.1263C34.3987 21.1306 34.3657 21.1337 34.3286 21.1354C34.2915 21.1372 34.2455 21.138 34.1905 21.138C34.0493 21.138 33.9541 21.131 33.9051 21.1171C33.856 21.1031 33.8506 21.076 33.8889 21.0358L34.5351 20.3695C34.5518 20.3519 34.5709 20.338 34.5924 20.3275C34.614 20.317 34.6427 20.3083 34.6787 20.3013C34.7145 20.2943 34.7605 20.2895 34.8168 20.2868C34.873 20.2842 34.9466 20.2829 35.0376 20.2829C35.1332 20.2829 35.2092 20.2873 35.2655 20.296C35.3217 20.3047 35.3612 20.3166 35.3839 20.3314C35.4066 20.3463 35.4144 20.3638 35.4073 20.3839C35.4001 20.404 35.381 20.4255 35.3498 20.4482L34.5637 21.0699ZM34.3412 22.6831C34.3412 22.5677 34.3286 22.4614 34.3035 22.3644C34.2784 22.2673 34.2358 22.183 34.176 22.1113C34.1162 22.0396 34.0366 21.9836 33.9374 21.9434C33.8381 21.9031 33.7131 21.883 33.5623 21.883C33.4283 21.883 33.311 21.901 33.2105 21.9368C33.11 21.9727 33.0274 22.0251 32.9628 22.0942C32.8982 22.1633 32.8498 22.2464 32.8174 22.3434C32.7852 22.4404 32.769 22.5511 32.769 22.6752C32.769 22.7907 32.7821 22.8969 32.8085 22.994C32.8348 23.091 32.8772 23.1754 32.9359 23.2471C32.9944 23.3188 33.0741 23.3743 33.1746 23.4137C33.275 23.453 33.3995 23.4727 33.5479 23.4727C33.6843 23.4727 33.8028 23.4547 33.9033 23.4189C34.0038 23.383 34.0863 23.3311 34.1509 23.2628C34.2155 23.1946 34.2634 23.112 34.2945 23.015C34.3256 22.9179 34.3412 22.8073 34.3412 22.6831ZM33.2285 21.0725C33.2116 21.0865 33.1943 21.0979 33.1764 21.1066C33.1584 21.1153 33.1369 21.1219 33.1118 21.1263C33.0866 21.1306 33.0561 21.1337 33.0203 21.1354C32.9843 21.1372 32.9413 21.138 32.891 21.138C32.8168 21.138 32.7564 21.1363 32.7097 21.1328C32.6631 21.1293 32.6283 21.1232 32.6056 21.1144C32.5829 21.1057 32.5715 21.0943 32.5715 21.0804C32.5715 21.0664 32.5799 21.0489 32.5967 21.0279L33.1387 20.3905C33.1554 20.3713 33.1746 20.3546 33.1961 20.3406C33.2177 20.3266 33.2452 20.3157 33.2787 20.3078C33.3122 20.3 33.3535 20.2938 33.4025 20.2895C33.4515 20.2851 33.5132 20.2829 33.5874 20.2829C33.6999 20.2829 33.7902 20.2864 33.8584 20.2934C33.9266 20.3004 33.9751 20.3109 34.0038 20.3249C34.0324 20.3389 34.0433 20.3559 34.036 20.376C34.0289 20.3962 34.0073 20.4211 33.9715 20.4508L33.2285 21.0725ZM35.2709 22.6569C35.2709 22.8562 35.235 23.0381 35.1632 23.2025C35.0915 23.3669 34.9825 23.5086 34.8365 23.6275C34.6905 23.7464 34.5075 23.8382 34.2874 23.9029C34.0672 23.9676 33.8099 23.9999 33.5156 23.9999C33.2308 23.9999 32.9831 23.9711 32.7726 23.9134C32.562 23.8557 32.3873 23.7717 32.2485 23.6615C32.1097 23.5514 32.0068 23.4159 31.9398 23.255C31.8728 23.0941 31.8393 22.9104 31.8393 22.7041C31.8393 22.5047 31.8758 22.3225 31.9488 22.1572C32.0217 21.9919 32.1312 21.8502 32.2772 21.7322C32.4232 21.6142 32.6056 21.5228 32.8246 21.4581C33.0436 21.3934 33.3003 21.361 33.5946 21.361C33.8817 21.361 34.1306 21.3895 34.3412 21.4463C34.5518 21.5031 34.7258 21.5867 34.8635 21.6968C35.001 21.807 35.1033 21.9425 35.1704 22.1034C35.2374 22.2643 35.2709 22.4488 35.2709 22.6569Z" fill="#818285"/>
<path d="M38.042 21.7282C38.042 21.7912 38.0396 21.8428 38.0348 21.883C38.0301 21.9232 38.0229 21.9547 38.0133 21.9774C38.0037 22.0002 37.9911 22.0159 37.9757 22.0247C37.96 22.0334 37.9403 22.0378 37.9163 22.0378C37.8972 22.0378 37.8757 22.0347 37.8517 22.0286C37.8279 22.0225 37.8009 22.0159 37.771 22.0089C37.741 22.0019 37.7081 21.9954 37.6723 21.9893C37.6364 21.9831 37.597 21.9801 37.5538 21.9801C37.5035 21.9801 37.4534 21.9875 37.4031 22.0024C37.3528 22.0172 37.3008 22.0404 37.2469 22.0719C37.1931 22.1034 37.1368 22.1453 37.0782 22.1978C37.0196 22.2503 36.9567 22.315 36.8898 22.3919V23.8504C36.8898 23.8679 36.8826 23.8832 36.8682 23.8963C36.8539 23.9094 36.8293 23.9203 36.7947 23.9291C36.76 23.9378 36.7139 23.9444 36.6565 23.9488C36.599 23.9532 36.526 23.9553 36.4375 23.9553C36.3489 23.9553 36.276 23.9532 36.2186 23.9488C36.1611 23.9444 36.115 23.9378 36.0803 23.9291C36.0456 23.9203 36.0211 23.9094 36.0068 23.8963C35.9924 23.8832 35.9853 23.8679 35.9853 23.8504V21.5105C35.9853 21.4931 35.9912 21.4777 36.0032 21.4646C36.0151 21.4515 36.0367 21.4406 36.0678 21.4318C36.0989 21.4231 36.139 21.4165 36.188 21.4121C36.2371 21.4078 36.2987 21.4056 36.3729 21.4056C36.4495 21.4056 36.5129 21.4078 36.5631 21.4121C36.6135 21.4165 36.6522 21.4231 36.6798 21.4318C36.7072 21.4406 36.727 21.4515 36.739 21.4646C36.751 21.4777 36.757 21.4931 36.757 21.5105V21.8017C36.8407 21.7142 36.9196 21.6421 36.9939 21.5853C37.068 21.5284 37.1387 21.4834 37.2057 21.4502C37.2727 21.417 37.3397 21.3938 37.4067 21.3807C37.4737 21.3675 37.5406 21.361 37.6077 21.361C37.6388 21.361 37.6723 21.3623 37.7081 21.365C37.7441 21.3675 37.7812 21.3719 37.8195 21.378C37.8577 21.3842 37.8913 21.3912 37.9199 21.3991C37.9487 21.4069 37.9696 21.4152 37.9828 21.424C37.9959 21.4327 38.0055 21.4423 38.0115 21.4528C38.0175 21.4633 38.0229 21.4777 38.0277 21.4961C38.0325 21.5144 38.0361 21.542 38.0384 21.5787C38.0408 21.6154 38.042 21.6653 38.042 21.7282Z" fill="#818285"/>
<path d="M43.2361 23.853C43.2361 23.8705 43.2295 23.8858 43.2164 23.899C43.2032 23.9121 43.1792 23.9226 43.1446 23.9304C43.1099 23.9383 43.0626 23.9444 43.0028 23.9488C42.9429 23.9532 42.8651 23.9554 42.7695 23.9554C42.6713 23.9554 42.5918 23.9536 42.5308 23.9501C42.4697 23.9466 42.4195 23.9409 42.38 23.9331C42.3405 23.9252 42.3099 23.9142 42.2884 23.9003C42.267 23.8863 42.2477 23.8679 42.231 23.8452L41.1649 22.6123V23.8504C41.1649 23.8679 41.1577 23.8832 41.1433 23.8963C41.129 23.9095 41.1045 23.9204 41.0698 23.9291C41.0351 23.9378 40.989 23.9444 40.9316 23.9488C40.8741 23.9532 40.8011 23.9554 40.7126 23.9554C40.6241 23.9554 40.5511 23.9532 40.4937 23.9488C40.4363 23.9444 40.3901 23.9378 40.3554 23.9291C40.3207 23.9204 40.2962 23.9095 40.2819 23.8963C40.2676 23.8832 40.2604 23.8679 40.2604 23.8504V20.401C40.2604 20.3834 40.2676 20.3677 40.2819 20.3537C40.2962 20.3398 40.3207 20.3279 40.3554 20.3183C40.3901 20.3087 40.4363 20.3013 40.4937 20.296C40.5511 20.2908 40.6241 20.2881 40.7126 20.2881C40.8011 20.2881 40.8741 20.2908 40.9316 20.296C40.989 20.3013 41.0351 20.3087 41.0698 20.3183C41.1045 20.3279 41.129 20.3398 41.1433 20.3537C41.1577 20.3677 41.1649 20.3834 41.1649 20.401V22.4549L42.1125 21.5237C42.1317 21.5027 42.1532 21.4843 42.1772 21.4686C42.201 21.4528 42.2329 21.4406 42.2723 21.4319C42.3118 21.4231 42.3608 21.4166 42.4195 21.4122C42.4781 21.4078 42.5529 21.4056 42.6438 21.4056C42.7323 21.4056 42.8072 21.4078 42.8682 21.4122C42.9292 21.4166 42.9781 21.4231 43.0154 21.4319C43.0524 21.4406 43.0781 21.4516 43.0924 21.4646C43.1069 21.4777 43.114 21.4939 43.114 21.5132C43.114 21.5394 43.105 21.5674 43.0871 21.5971C43.0692 21.6268 43.0423 21.6583 43.0063 21.6915L42.0695 22.468L43.1535 23.693C43.1823 23.728 43.2032 23.7582 43.2164 23.7835C43.2295 23.8089 43.2361 23.8321 43.2361 23.853Z" fill="#818285"/>
<path d="M44.6937 23.8504C44.6937 23.8679 44.6864 23.8832 44.672 23.8964C44.6577 23.9094 44.6332 23.9204 44.5986 23.9291C44.5636 23.9379 44.5178 23.9444 44.4604 23.9488C44.4027 23.9532 44.33 23.9553 44.2415 23.9553C44.1526 23.9553 44.0799 23.9532 44.0222 23.9488C43.9648 23.9444 43.9186 23.9379 43.884 23.9291C43.8494 23.9204 43.8249 23.9094 43.8106 23.8964C43.7962 23.8832 43.7889 23.8679 43.7889 23.8504V20.4009C43.7889 20.3835 43.7962 20.3677 43.8106 20.3537C43.8249 20.3397 43.8494 20.328 43.884 20.3183C43.9186 20.3087 43.9648 20.3013 44.0222 20.296C44.0799 20.2908 44.1526 20.2882 44.2415 20.2882C44.33 20.2882 44.4027 20.2908 44.4604 20.296C44.5178 20.3013 44.5636 20.3087 44.5986 20.3183C44.6332 20.328 44.6577 20.3397 44.672 20.3537C44.6864 20.3677 44.6937 20.3835 44.6937 20.4009V23.8504Z" fill="#818285"/>
<path d="M48.6311 23.8504C48.6311 23.8679 48.6252 23.8832 48.6133 23.8964C48.6013 23.9094 48.5802 23.9204 48.5504 23.9291C48.5204 23.9379 48.4809 23.9444 48.4319 23.9488C48.3828 23.9532 48.3212 23.9554 48.2471 23.9554C48.1681 23.9554 48.104 23.9532 48.0551 23.9488C48.0059 23.9444 47.9671 23.9379 47.9384 23.9291C47.9096 23.9204 47.8893 23.9094 47.8774 23.8964C47.8653 23.8832 47.8594 23.8679 47.8594 23.8504V23.5803C47.6823 23.7202 47.5023 23.8251 47.3192 23.895C47.1361 23.965 46.9463 24 46.7503 24C46.53 24 46.3451 23.9737 46.1956 23.9213C46.0461 23.8688 45.9253 23.7971 45.8331 23.7062C45.7409 23.6152 45.6752 23.5099 45.6357 23.3901C45.5963 23.2702 45.5765 23.1212 45.5765 22.9428V21.5106C45.5765 21.4931 45.583 21.4778 45.5963 21.4646C45.6094 21.4515 45.6334 21.4406 45.668 21.4319C45.7026 21.4231 45.7493 21.4166 45.8081 21.4122C45.8667 21.4078 45.939 21.4056 46.0251 21.4056C46.1136 21.4056 46.1867 21.4078 46.2441 21.4122C46.3016 21.4166 46.3476 21.4231 46.3823 21.4319C46.417 21.4406 46.4415 21.4515 46.4558 21.4646C46.4703 21.4778 46.4775 21.4931 46.4775 21.5106V22.8326C46.4775 22.9551 46.4882 23.0486 46.5097 23.1133C46.5314 23.178 46.5641 23.2336 46.6085 23.2799C46.6527 23.3262 46.7091 23.3621 46.7772 23.3874C46.8455 23.4128 46.9249 23.4255 47.016 23.4255C47.1307 23.4255 47.2461 23.3949 47.3622 23.3337C47.4783 23.2725 47.6021 23.1833 47.7338 23.0661V21.5106C47.7338 21.4931 47.7403 21.4778 47.7536 21.4646C47.7667 21.4515 47.7907 21.4406 47.8253 21.4319C47.8599 21.4231 47.9061 21.4166 47.9635 21.4122C48.021 21.4078 48.0939 21.4056 48.1824 21.4056C48.2711 21.4056 48.344 21.4078 48.4015 21.4122C48.4589 21.4166 48.5044 21.4231 48.5379 21.4319C48.5713 21.4406 48.5953 21.4515 48.6096 21.4646C48.624 21.4778 48.6311 21.4931 48.6311 21.5106V23.8504Z" fill="#818285"/>
<path d="M51.8256 22.6962C51.8256 22.5965 51.8155 22.5004 51.7953 22.4077C51.7748 22.315 51.7396 22.2328 51.6892 22.1611C51.6391 22.0894 51.5738 22.0322 51.4937 21.9893C51.4135 21.9465 51.3124 21.925 51.1904 21.925C51.1305 21.925 51.0719 21.9311 51.0144 21.9434C50.9571 21.9556 50.8977 21.9766 50.8367 22.0063C50.7757 22.0361 50.7129 22.0745 50.6484 22.1218C50.5837 22.169 50.5155 22.2276 50.4438 22.2975V23.074C50.5705 23.1929 50.6919 23.2834 50.808 23.3455C50.9242 23.4075 51.0455 23.4386 51.1725 23.4386C51.2897 23.4386 51.389 23.4167 51.4703 23.373C51.5516 23.3293 51.6193 23.2725 51.6732 23.2025C51.727 23.1326 51.7659 23.053 51.7898 22.9638C51.8138 22.8746 51.8256 22.7854 51.8256 22.6962ZM52.7627 22.649C52.7627 22.8571 52.7315 23.0442 52.6693 23.2104C52.607 23.3765 52.5173 23.5181 52.4 23.6353C52.2828 23.7525 52.1385 23.8425 51.9675 23.9055C51.7964 23.9685 51.602 24 51.3843 24C51.2765 24 51.176 23.9925 51.0826 23.9777C50.9894 23.9628 50.9002 23.9388 50.8152 23.9055C50.7302 23.8723 50.6466 23.8303 50.5639 23.7796C50.4814 23.7289 50.3971 23.6677 50.3108 23.596V23.8505C50.3108 23.8697 50.3042 23.8858 50.2911 23.899C50.278 23.9121 50.2564 23.923 50.2266 23.9318C50.1967 23.9405 50.1566 23.9466 50.1062 23.9501C50.0561 23.9536 49.995 23.9554 49.9233 23.9554C49.849 23.9554 49.7874 23.9536 49.7383 23.9501C49.6893 23.9466 49.6498 23.9405 49.6199 23.9318C49.59 23.923 49.569 23.9121 49.5571 23.899C49.5451 23.8858 49.5391 23.8697 49.5391 23.8505V20.401C49.5391 20.3835 49.5463 20.3677 49.5606 20.3537C49.5751 20.3398 49.5996 20.3279 49.6343 20.3184C49.6689 20.3087 49.7151 20.3013 49.7724 20.296C49.83 20.2908 49.9029 20.2881 49.9916 20.2881C50.08 20.2881 50.1529 20.2908 50.2105 20.296C50.2678 20.3013 50.3139 20.3087 50.3486 20.3184C50.3833 20.3279 50.408 20.3398 50.4223 20.3537C50.4366 20.3677 50.4438 20.3835 50.4438 20.401V21.6942C50.5251 21.6347 50.6064 21.584 50.6879 21.542C50.7692 21.5001 50.8505 21.4655 50.9319 21.4384C51.0132 21.4113 51.0971 21.3916 51.1832 21.3794C51.2693 21.3672 51.3603 21.361 51.456 21.361C51.6929 21.361 51.8939 21.3956 52.0589 21.4646C52.2242 21.5337 52.3587 21.6268 52.4629 21.7441C52.567 21.8612 52.6429 21.998 52.6908 22.1545C52.7387 22.3111 52.7627 22.4759 52.7627 22.649Z" fill="#818285"/>
<path d="M13.6514 14.7143C13.3329 14.7143 13.0738 14.9733 13.0738 15.2918C13.0738 15.6102 13.3329 15.8693 13.6514 15.8693C13.9698 15.8693 14.2288 15.6102 14.2288 15.2918C14.2288 14.9733 13.9698 14.7143 13.6514 14.7143ZM13.6514 16.4706C13.0013 16.4706 12.4724 15.9418 12.4724 15.2918C12.4724 14.6417 13.0013 14.1129 13.6514 14.1129C14.3014 14.1129 14.8302 14.6417 14.8302 15.2918C14.8302 15.9418 14.3014 16.4706 13.6514 16.4706Z" fill="#20B2E7"/>
<path d="M23.4153 5.04243C23.2995 5.04243 23.1838 4.99774 23.0962 4.90866C20.5507 2.32065 17.2085 0.895349 13.6853 0.895349C10.1621 0.895349 6.81998 2.32065 4.27453 4.90866C4.1012 5.08499 3.81783 5.08738 3.64146 4.91388C3.46517 4.7405 3.46282 4.45709 3.6362 4.28081C6.35129 1.52029 9.92012 0 13.6853 0C17.4505 0 21.0194 1.52029 23.7344 4.28081C23.9079 4.45709 23.9055 4.7405 23.7292 4.91388C23.642 4.99969 23.5286 5.04243 23.4153 5.04243Z" fill="#20B2E7"/>
<path d="M21.6869 6.71762C21.5729 6.71762 21.459 6.67441 21.3716 6.58785C19.2784 4.5124 16.5487 3.36942 13.6854 3.36942C10.822 3.36942 8.09233 4.5124 5.99914 6.58785C5.82355 6.76205 5.53997 6.76084 5.36599 6.58516C5.19192 6.40957 5.19309 6.12611 5.36868 5.952C7.63077 3.70917 10.5843 2.47403 13.6854 2.47403C16.7865 2.47403 19.74 3.70917 22.002 5.952C22.1777 6.12611 22.1789 6.40957 22.0048 6.58516C21.9173 6.67337 21.802 6.71762 21.6869 6.71762Z" fill="#20B2E7"/>
<path d="M21.6869 6.71762C21.5729 6.71762 21.459 6.67441 21.3716 6.58785C19.2784 4.5124 16.5487 3.36942 13.6854 3.36942C10.822 3.36942 8.09233 4.5124 5.99914 6.58785C5.82355 6.76205 5.53997 6.76084 5.36599 6.58516C5.19192 6.40957 5.19309 6.12611 5.36868 5.952C7.63077 3.70917 10.5843 2.47403 13.6854 2.47403C16.7865 2.47403 19.74 3.70917 22.002 5.952C22.1777 6.12611 22.1789 6.40957 22.0048 6.58516C21.9173 6.67337 21.802 6.71762 21.6869 6.71762Z" fill="#20B2E7"/>
<path d="M19.9846 8.36732C19.8734 8.36732 19.7621 8.32615 19.6754 8.24333C18.0294 6.67057 15.9021 5.80448 13.6853 5.80448C11.4686 5.80448 9.34127 6.67057 7.69534 8.24333C7.51654 8.4141 7.2333 8.40771 7.06236 8.2289C6.89159 8.05018 6.89794 7.76681 7.07679 7.59592C8.8901 5.8633 11.237 4.90909 13.6853 4.90909C16.1336 4.90909 18.4806 5.8633 20.2939 7.59592C20.4727 7.76681 20.4791 8.05018 20.3084 8.2289C20.2204 8.32098 20.1026 8.36732 19.9846 8.36732Z" fill="#20B2E7"/>
</svg>
