<svg width="60" height="24" viewBox="0 0 60 24" fill="none" xmlns="http://www.w3.org/2000/svg">
<path d="M35.8032 0H0.907562V11.4409H35.8032V0Z" fill="#F8981C"/>
<path d="M59.6032 11.4409H35.8032V24H59.6032V11.4409Z" fill="#6A6A6A"/>
<path d="M5.26072 8.43827H8.85172V10.2238H3.11804V1.1969H5.26072V8.43827Z" fill="white"/>
<path d="M16.3841 2.91629H12.0856V4.76799H15.4649V6.46757H12.0856V8.43832H16.3841V10.2238H9.93628V1.1969H16.3841V2.91629Z" fill="white"/>
<path d="M24.6836 5.39622V10.2238H23.7181C23.6482 9.88438 23.5479 9.53832 23.4172 9.18556C22.7731 9.97037 21.9526 10.3628 20.9557 10.3628C19.778 10.3628 18.8615 9.94176 18.2065 9.09957C17.5514 8.25754 17.2239 7.16854 17.2239 5.83272C17.2239 4.39551 17.5733 3.24034 18.2721 2.36743C18.9709 1.49448 19.9198 1.05798 21.1191 1.05798C22.1243 1.05798 22.9354 1.34021 23.5527 1.90447C24.1699 2.46888 24.5469 3.22053 24.6836 4.15961L22.6732 4.42408C22.51 3.33078 21.992 2.78403 21.1191 2.78403C20.5459 2.78403 20.1127 3.04307 19.8196 3.56106C19.5263 4.07914 19.3798 4.81871 19.3798 5.7798C19.3798 6.70567 19.5385 7.41325 19.8559 7.90262C20.1734 8.392 20.6253 8.63666 21.2117 8.63666C21.5908 8.63666 21.9292 8.5133 22.2268 8.26634C22.5243 8.01948 22.6732 7.62485 22.6732 7.0826H20.9736V5.39622H24.6836Z" fill="white"/>
<path d="M29.7988 2.78396C28.6901 2.78396 28.1357 3.75841 28.1357 5.70701C28.1357 7.66015 28.6901 8.6366 29.7988 8.6366C30.8724 8.6366 31.4092 7.6623 31.4092 5.71361C31.4092 3.76056 30.8724 2.78396 29.7988 2.78396ZM29.7393 10.3627C28.5236 10.3627 27.5831 9.90633 26.9179 8.99376C26.2528 8.0811 25.9203 6.97674 25.9203 5.68054C25.9203 4.36234 26.2572 3.26238 26.9311 2.38058C27.605 1.49887 28.5654 1.05792 29.8121 1.05792C31.0719 1.05792 32.0222 1.52861 32.6632 2.46984C33.3041 3.41118 33.6246 4.488 33.6246 5.7004C33.6246 7.0098 33.2941 8.11421 32.6334 9.01357C31.9726 9.91299 31.0079 10.3627 29.7393 10.3627Z" fill="white"/>
<path d="M39.0119 14.7003V18.521L41.5615 14.7003H43.3849L41.4317 17.6037L43.8734 22.8326H41.7757L40.1529 19.3011L39.0119 20.9678V22.8326H37.1412V14.7003H39.0119Z" fill="white"/>
<path d="M48.5819 13.8305C48.3674 13.8305 48.1966 13.761 48.0696 13.6219C47.9424 13.483 47.8789 13.3241 47.8789 13.1453C47.8789 12.9627 47.9454 12.8008 48.0785 12.6598C48.2115 12.5189 48.3813 12.4483 48.5879 12.4483C48.7786 12.4483 48.9454 12.5099 49.0884 12.633C49.2313 12.7561 49.3028 12.9249 49.3028 13.1394C49.3028 13.35 49.2323 13.5177 49.0914 13.6428C48.9502 13.7679 48.7806 13.8305 48.5819 13.8305ZM47.5481 16.1301C46.5493 16.1301 46.0499 17.008 46.0499 18.7635C46.0499 20.523 46.5493 21.4028 47.5481 21.4028C48.5154 21.4028 48.999 20.525 48.999 18.7694C48.999 17.01 48.5154 16.1301 47.5481 16.1301ZM46.592 13.8305C46.3776 13.8305 46.2067 13.761 46.0797 13.6219C45.9525 13.483 45.8891 13.3241 45.8891 13.1453C45.8891 12.9627 45.9546 12.8008 46.0856 12.6598C46.2167 12.5189 46.3855 12.4483 46.592 12.4483C46.7787 12.4483 46.9455 12.5088 47.0925 12.63C47.2394 12.7512 47.313 12.921 47.313 13.1394C47.313 13.35 47.2423 13.5177 47.1014 13.6428C46.9604 13.7679 46.7906 13.8305 46.592 13.8305ZM47.4946 22.9577C46.3993 22.9577 45.5521 22.5466 44.9529 21.7245C44.3536 20.9023 44.054 19.9074 44.054 18.7397C44.054 17.5521 44.3576 16.5612 44.9648 15.7667C45.5719 14.9724 46.437 14.5752 47.5602 14.5752C48.6952 14.5752 49.5513 14.9992 50.1287 15.8472C50.7061 16.6951 50.9948 17.6653 50.9948 18.7575C50.9948 19.9372 50.6972 20.9321 50.1019 21.7423C49.5066 22.5526 48.6375 22.9577 47.4946 22.9577Z" fill="white"/>
<path d="M53.8975 16.148V18.2213H55.0652C55.4464 18.2213 55.7235 18.1946 55.8962 18.1409C56.069 18.0872 56.2229 17.9681 56.358 17.7834C56.4929 17.5987 56.5605 17.3872 56.5605 17.1489C56.5605 16.9225 56.4929 16.7199 56.358 16.5412C56.2229 16.3625 56.0759 16.2523 55.9171 16.2105C55.7582 16.1689 55.4603 16.148 55.0234 16.148H53.8975ZM53.8975 19.6095V22.8326H51.979V14.7003H55.5537C56.2129 14.7003 56.7423 14.7767 57.1414 14.9296C57.5406 15.0825 57.8712 15.3631 58.1334 15.772C58.3955 16.1809 58.5266 16.6354 58.5266 17.1354C58.5266 18.1118 58.056 18.8125 57.1146 19.2371L58.616 22.8326H56.511L55.2621 19.6095H53.8975Z" fill="white"/>
</svg>
