<?xml version="1.0" encoding="UTF-8" standalone="no"?>
<svg
   width="219.39"
   height="151.56"
   viewBox="0 0 219.39 151.56"
   version="1.1"
   xml:space="preserve"
   style="clip-rule:evenodd;fill-rule:evenodd;stroke-linejoin:round;stroke-miterlimit:2"
   id="svg33"
   sodipodi:docname="SEM.svg"
   inkscape:version="1.1.2 (b8e25be833, 2022-02-05)"
   xmlns:inkscape="http://www.inkscape.org/namespaces/inkscape"
   xmlns:sodipodi="http://sodipodi.sourceforge.net/DTD/sodipodi-0.dtd"
   xmlns="http://www.w3.org/2000/svg"
   xmlns:svg="http://www.w3.org/2000/svg"><defs
   id="defs37" /><sodipodi:namedview
   id="namedview35"
   pagecolor="#ffffff"
   bordercolor="#666666"
   borderopacity="1.0"
   inkscape:pageshadow="2"
   inkscape:pageopacity="0.0"
   inkscape:pagecheckerboard="0"
   showgrid="false"
   fit-margin-top="0"
   fit-margin-left="0"
   fit-margin-right="0"
   fit-margin-bottom="0"
   inkscape:zoom="2.1333333"
   inkscape:cx="57.421875"
   inkscape:cy="105"
   inkscape:window-width="1920"
   inkscape:window-height="1009"
   inkscape:window-x="-8"
   inkscape:window-y="-8"
   inkscape:window-maximized="1"
   inkscape:current-layer="SEM" />
    <g
   id="SEM"
   transform="translate(0,-12.162)">
        <g
   transform="translate(204.76,50.812)"
   id="g4">
            <path
   d="M 0,74.3 H -17.03 V 9.29 H -31.48 V 74.3 H -52.63 V 9.29 H -67.6 V 74.3 h -93.21 v -9.29 h 83.93 V 0 h 33.53 v 65.01 h 2.58 V 0 H -7.74 V 65.01 H 0 Z"
   style="fill:#7eba28;fill-rule:nonzero"
   id="path2" />
        </g>
        <g
   transform="translate(35.6801,89.0324)"
   id="g8"
   style="fill:#f9f9f9">
            <path
   d="m 0,-9.33 v -9.28 h 31.83 v -9.26 h -37.4 c -2.819,0.027 -5.094,2.311 -5.11,5.13 V -5.2 c 0,2.849 2.31,5.16 5.16,5.16 H 21.1 v 9.29 h -31.78 v 9.29 h 37.35 c 2.85,0 5.16,-2.31 5.16,-5.16 V -4.17 c 0,-2.85 -2.31,-5.16 -5.16,-5.16 z m 83.42,-9.28 v -9.26 H 46.03 c -2.85,0 -5.16,2.31 -5.16,5.16 v 36.09 c 0,2.85 2.31,5.16 5.16,5.16 H 83.42 V 9.25 H 51.6 V -0.04 H 73.88 V -9.33 H 51.6 v -9.28 z"
   style="fill:#f9f9f9;fill-rule:nonzero"
   id="path6" />
        </g>
        <g
   transform="translate(212.17,29.252)"
   id="g12"
   style="fill:#f9f9f9">
            <path
   d="M 0,117.38 H -204.95 V 74.57 c 5.97,-3.033 9.727,-9.164 9.72,-15.86 0.007,-6.696 -3.75,-12.827 -9.72,-15.86 V 0.04 H 0 Z M 7.22,-7.19 h -19.79 v -9.9 h -34.54 v 9.9 H -61 v -9.9 h -34.53 v 9.9 h -13.89 v -9.9 h -34.53 v 9.9 h -13.89 v -9.9 h -34.54 v 9.9 h -19.79 v 55 l 2.47,0.82 c 4.314,1.429 7.23,5.457 7.24,10 -0.01,4.544 -2.926,8.572 -7.24,10 l -2.47,0.94 v 55 h 19.79 v 9.9 h 34.54 v -9.9 h 13.89 v 9.9 h 34.54 v -9.9 h 13.89 v 9.9 h 34.54 v -9.9 h 13.89 v 9.9 h 34.52 v -9.9 H 7.22 Z"
   style="fill:#f9f9f9;fill-rule:nonzero"
   id="path10" />
        </g>
        <g
   transform="matrix(-1,0,0,1,26.0199,131.963)"
   id="g16"
   style="fill:#f9f9f9">
            <path
   d="m 0,-16.14 c -4.457,0 -8.07,3.613 -8.07,8.07 0,4.456 3.613,8.07 8.07,8.07 4.457,0 8.07,-3.614 8.07,-8.07 0,-4.457 -3.613,-8.07 -8.07,-8.07"
   style="fill:#f9f9f9;fill-rule:nonzero"
   id="path14" />
        </g>
        
    </g>
</svg>
