<svg width="86" height="24" viewBox="0 0 86 24" fill="none" xmlns="http://www.w3.org/2000/svg">
<path d="M50.0928 23.7689C49.4687 23.6424 48.7025 23.4915 48.3905 23.4338C48.0785 23.3761 47.7799 23.3146 47.7269 23.2973C47.6741 23.28 47.3901 23.1722 47.096 23.0579C46.4207 22.7955 46.2046 22.6685 46.0931 22.4687C46.0495 22.3909 46.0439 22.359 46.0439 22.1887V21.9968L46.1397 21.8382C46.2967 21.5781 46.332 21.4884 46.3322 21.3484L46.3324 21.2246L46.089 20.8387C45.2726 19.5436 44.8864 18.8828 44.593 18.2792C44.4748 18.0358 44.3451 17.7804 44.3047 17.7118C44.2613 17.6376 44.1686 17.4023 44.0775 17.1348C43.9929 16.886 43.851 16.5015 43.7619 16.2803C43.6071 15.8959 43.5952 15.8553 43.4939 15.3667C43.4355 15.0855 43.3453 14.6867 43.2932 14.4804C43.235 14.2496 43.1682 13.9083 43.1199 13.5942L43.0412 13.0827L43.0483 12.1612L43.0553 11.2394L43.1337 10.749C43.1893 10.4008 43.2434 10.1439 43.3199 9.86417C43.3793 9.64725 43.4706 9.28372 43.5229 9.05633C43.6379 8.55517 43.7071 8.34786 43.8305 8.13308C43.8828 8.04203 43.9907 7.79092 44.0739 7.56694C44.21 7.20021 44.2511 7.11536 44.534 6.61484C44.9956 5.79781 45.3622 5.25604 45.8452 4.67623C46.431 3.9731 46.6188 3.76772 46.8757 3.54973C47.1965 3.27746 47.1529 3.30995 47.715 2.92162C48.1202 2.64187 48.3266 2.51492 48.7391 2.29223L49.2561 2.01333L50.059 1.80133L50.8621 1.58954L51.9442 1.56945L52.8264 1.73614C53.7984 1.91994 54.0236 1.98021 54.3624 2.14755C54.479 2.20504 54.7736 2.31959 55.0168 2.40165C55.3955 2.52967 55.5545 2.5972 56.1204 2.87033C56.4841 3.04558 56.8346 3.21912 56.8994 3.25566C56.968 3.29434 57.0868 3.39265 57.1838 3.49139C57.3356 3.64569 57.3747 3.70275 57.6151 4.12271C57.7607 4.3766 57.9079 4.62814 57.9423 4.682C57.9767 4.73564 58.078 4.93055 58.1678 5.11477C58.2573 5.299 58.3886 5.54498 58.4593 5.66146C58.5298 5.77772 58.6617 6.04166 58.7521 6.24789C58.8425 6.45413 58.9596 6.69007 59.0124 6.77235C59.0855 6.88647 59.1829 7.11472 59.4231 7.73428L59.738 8.54662L59.8937 9.21982C60.0117 9.7291 60.0699 9.94197 60.1331 10.095C60.1791 10.2059 60.2517 10.4136 60.2945 10.5566C60.3637 10.7881 60.378 10.8723 60.4257 11.3356C60.4778 11.8408 60.4793 11.884 60.4778 12.9417C60.477 13.5717 60.4624 14.4082 60.4432 14.9324L60.4103 15.8365L60.3413 16.0961C60.2791 16.3308 60.2521 16.3936 60.0602 16.7501C59.7206 17.381 59.5262 17.7334 59.4597 17.8377C59.4257 17.8913 59.3272 18.0991 59.2406 18.2993C59.1541 18.4998 59.0361 18.7383 58.9786 18.8293C58.9211 18.9202 58.7219 19.314 58.5362 19.7045C58.2516 20.3027 58.1896 20.4489 58.1421 20.6354C58.1109 20.757 58.0682 20.9171 58.0466 20.9911C58.0178 21.0909 58.0077 21.1819 58.0077 21.3426C58.0077 21.5516 58.0101 21.5642 58.0735 21.6888C58.1434 21.8263 58.2103 21.8899 58.3644 21.9669L58.4597 22.0145L60.1523 22.0466C61.1972 22.0665 62.6517 22.0787 63.9528 22.0784C66.2917 22.078 66.103 22.0682 66.3753 22.2026C66.6551 22.3405 66.6249 22.6766 66.314 22.8878C66.1977 22.9666 65.5587 23.2295 65.243 23.3282C65.087 23.377 65.0274 23.386 64.8556 23.386C64.6752 23.386 64.6352 23.3793 64.5002 23.3272C64.3516 23.2701 64.1159 23.1571 63.9608 23.0686C63.8139 22.9848 63.1213 22.8049 62.8452 22.7786C62.6468 22.76 62.1698 22.7649 60.8736 22.7991C60.297 22.8143 59.6219 22.8318 59.3734 22.838C59.1021 22.8448 58.8444 22.8412 58.729 22.829C58.6232 22.8177 58.29 22.8032 57.9885 22.7965C57.4847 22.7854 57.4176 22.788 57.1614 22.8269C56.4615 22.9329 56.2941 22.9679 55.8054 23.1103C55.4653 23.2092 55.1121 23.2949 54.702 23.3778C54.0918 23.5009 53.9683 23.5319 53.1256 23.7728C52.8319 23.8568 52.5776 23.9173 52.4428 23.9352C52.2293 23.9636 51.5922 24.0015 51.3526 24C51.2716 23.9995 50.8282 23.9181 50.0928 23.7689ZM52.212 22.078C52.8448 22.0357 53.3799 21.9968 53.4011 21.9915C53.4222 21.9863 53.7122 21.9515 54.0454 21.9141C54.7513 21.835 55.2134 21.7412 55.5429 21.61C55.8353 21.4935 56.2493 21.1785 56.663 20.7577C56.9321 20.4839 56.9887 20.414 57.2131 20.0776C57.7222 19.3145 57.8795 19.0458 58.0353 18.674C58.115 18.4837 58.2569 18.1743 58.3509 17.9862C58.4587 17.7704 58.5555 17.5417 58.6136 17.3656C58.7337 17.001 58.9213 16.4902 59.0442 16.1936C59.1333 15.9781 59.2729 15.4686 59.3054 15.2398C59.3161 15.1652 59.3693 14.1737 59.4129 13.2398C59.4251 12.9804 59.4306 12.4283 59.4259 11.98C59.4178 11.2157 59.4148 11.164 59.3582 10.7682C59.2819 10.2328 59.1549 9.78916 58.8354 8.93943C58.6604 8.47374 58.5702 8.26216 58.4796 8.10423C58.2278 7.66483 58.1842 7.57977 58.115 7.39255C58.0584 7.23953 57.978 7.09677 57.7228 6.69627C57.2734 5.99122 56.9154 5.54071 56.3632 4.98633C55.899 4.52 55.768 4.414 55.2091 4.05346C54.7443 3.7534 54.4594 3.62731 53.4883 3.29199C52.91 3.09217 52.7651 3.07486 51.67 3.07464C50.994 3.07464 50.8119 3.08063 50.5544 3.1114C50.0789 3.16825 49.5495 3.33046 49.0945 3.55892C48.8778 3.66792 47.7549 4.53988 47.3965 4.87755C47.2467 5.01881 46.8813 5.40436 46.5846 5.73455C46.0499 6.3291 46.0424 6.33872 45.7379 6.80996C45.5688 7.07134 45.4224 7.30066 45.4126 7.31968C45.4026 7.33848 45.2762 7.66354 45.1318 8.04182C44.8845 8.68916 44.8642 8.75307 44.7849 9.12856C44.6986 9.53719 44.6949 9.57373 44.6293 10.6335C44.5543 11.8485 44.5137 14.224 44.5637 14.4826C44.5746 14.5394 44.6048 14.7074 44.6306 14.8555C44.6975 15.2391 44.8007 15.5539 44.9713 15.8942C45.0807 16.1124 45.1527 16.2951 45.2668 16.6443C45.3949 17.0365 45.4387 17.144 45.5581 17.359C45.6355 17.4983 45.777 17.8056 45.8727 18.0418C46.0544 18.4902 46.2709 18.8971 46.6068 19.4215C46.8426 19.7895 47.3333 20.3516 47.6989 20.6726C47.9778 20.9175 48.0216 20.9477 48.526 21.2413C48.8585 21.4349 49.1289 21.5786 49.246 21.6232C49.5862 21.7536 50.9087 22.1445 51.0387 22.1532C51.0511 22.1541 51.5791 22.1203 52.212 22.078ZM7.7867 23.8551C7.3022 23.7905 7.28853 23.7875 6.68072 23.6054C6.34219 23.5041 5.77093 23.3231 5.41125 23.2034C4.8152 23.0047 4.70962 22.9758 4.21872 22.8765C3.40895 22.713 3.1168 22.6335 2.92381 22.5243C2.83576 22.4745 2.69386 22.3774 2.60837 22.3088C2.46026 22.1896 2.44894 22.175 2.3705 21.9987C2.3252 21.897 2.25531 21.7066 2.21535 21.5756C2.17495 21.4439 2.11319 21.29 2.07686 21.2317C2.03882 21.1706 1.82724 20.943 1.57612 20.6931L1.141 20.2604L1.07859 20.0838L1.01619 19.9075V19.5205C1.01619 19.1711 1.02004 19.1262 1.05487 19.0578C1.11941 18.9311 1.20768 18.8473 1.33933 18.7876C1.4496 18.7376 1.48508 18.7312 1.64879 18.7312C1.82232 18.7314 1.84605 18.7366 2.03561 18.8142C2.14674 18.8597 2.26942 18.918 2.30853 18.9439C2.34935 18.9708 2.50835 19.1584 2.68253 19.3852C3.02511 19.8308 3.32902 20.1625 3.76051 20.5615C4.0439 20.8235 4.08172 20.8511 4.62157 21.187L5.18599 21.5386L5.82757 21.7399C6.18041 21.8506 6.50697 21.9545 6.55313 21.9709C6.59951 21.9874 6.7942 22.0289 6.9859 22.0633C7.33426 22.1255 7.33576 22.1255 8.08483 22.1314C8.97367 22.1383 9.2094 22.1161 9.88325 21.9624C10.1106 21.9105 10.5218 21.8196 10.7969 21.7604C11.6443 21.5783 11.8909 21.5119 12.6451 21.2612C13.177 21.0845 13.4194 20.9943 13.5412 20.9276L13.7083 20.8363L13.9626 20.5002C14.2364 20.1385 14.242 20.1281 14.5756 19.3563C14.8271 18.7744 14.8553 18.6846 14.9705 18.1006L15.0765 17.5637L15.0763 16.9309C15.0763 16.3962 15.0705 16.265 15.0396 16.085C14.9714 15.6888 14.9547 15.6433 14.7893 15.403C14.594 15.1194 14.3794 14.9329 13.7415 14.4909C12.983 13.9656 12.5248 13.7138 11.9131 13.486C11.6703 13.3956 11.3602 13.2708 11.2239 13.209C11.0125 13.1129 10.8875 13.0738 10.3673 12.941C10.0322 12.8558 9.53104 12.7126 9.25321 12.6232C8.95145 12.5262 8.67276 12.4488 8.56077 12.4309C7.77644 12.3063 7.17013 12.1452 6.79612 11.9618C6.66918 11.8994 6.47876 11.8207 6.37297 11.7868C6.10796 11.7017 5.80213 11.5758 5.61043 11.4726C5.52217 11.4252 5.27661 11.3155 5.06503 11.2292C4.67243 11.0689 4.59678 11.03 3.89173 10.6274C3.32902 10.3059 3.00866 10.0518 2.64491 9.63806C2.45428 9.42135 2.34999 9.28372 2.27668 9.15271C2.11896 8.87061 1.85866 8.21044 1.76462 7.85418L1.68341 7.54643L1.67507 6.7388C1.66482 5.7666 1.6693 5.73134 1.84199 5.44112C2.04053 5.10729 2.8067 3.87779 3.0046 3.57517C3.21831 3.24882 3.49166 2.86478 3.57158 2.77929C3.59958 2.74916 3.69597 2.68077 3.78594 2.62734C3.92016 2.54741 4.03193 2.50445 4.41106 2.38755C4.66495 2.30933 4.968 2.20717 5.08426 2.1608C5.41381 2.02915 5.85663 1.93362 6.91944 1.76478C7.98866 1.59488 8.17908 1.57543 8.79073 1.57458C9.18461 1.57415 9.23697 1.57842 9.71398 1.65215C10.8666 1.83039 11.5124 1.97657 11.9125 2.15033C12.2059 2.2777 12.5436 2.4132 12.9223 2.55532C13.1772 2.65085 14.024 3.06567 14.2005 3.18129C14.2272 3.19881 14.3161 3.30524 14.3982 3.41787C14.4801 3.5305 14.5743 3.65274 14.6076 3.68993C14.6408 3.7269 14.8393 4.05154 15.049 4.41122C15.4559 5.10986 15.5063 5.2227 15.5305 5.48792C15.5437 5.63581 15.5433 5.63838 15.4623 5.80336C15.3817 5.96771 15.3792 5.97049 15.243 6.04208C15.0686 6.13355 14.9466 6.13868 14.7607 6.06239C14.6502 6.01708 14.604 5.9784 14.3514 5.72087C14.1947 5.56122 13.9494 5.28767 13.806 5.11328C13.4546 4.68542 13.1071 4.37938 12.5333 3.99234L12.1155 3.71045L11.4273 3.42428C10.8415 3.18065 10.7105 3.13299 10.5468 3.10435C10.441 3.08597 10.2594 3.05391 10.1429 3.0334C9.54472 2.92782 9.21645 2.90132 8.50606 2.90132C7.84205 2.90132 7.82217 2.90239 7.32293 2.96907C6.61981 3.0631 6.59438 3.06759 6.3345 3.14325C6.10817 3.20929 5.9528 3.27703 5.25737 3.61257C4.92291 3.77392 4.89748 3.79038 4.50723 4.0992L4.10331 4.41892L3.90904 4.69397C3.55513 5.1947 3.48802 5.32229 3.39463 5.67107C3.29611 6.03866 3.26661 6.26691 3.26661 6.66613C3.2664 7.18931 3.3256 7.5958 3.469 8.0587C3.52756 8.24742 3.85711 8.80201 4.02509 8.99478C4.15738 9.14652 4.46342 9.37284 4.69808 9.49231C4.77117 9.52949 5.00412 9.65473 5.21549 9.77035C5.42706 9.88597 5.72199 10.0317 5.87095 10.0943C6.02012 10.1567 6.26761 10.2632 6.42105 10.3305C6.60635 10.4121 6.90662 10.5164 7.31545 10.6415C7.65398 10.7447 8.02627 10.8714 8.14253 10.9229C8.30581 10.9952 8.48597 11.0497 8.93114 11.1612C9.32908 11.2608 9.65243 11.3563 9.97301 11.4687C10.2288 11.5583 10.5706 11.6626 10.7328 11.7004C11.1805 11.8047 11.8073 11.9904 12.076 12.0986C12.2083 12.1518 12.4418 12.2411 12.5953 12.2971C13.1334 12.4933 13.1597 12.5068 13.6049 12.8128C13.99 13.0774 14.068 13.1411 14.4679 13.5179C14.8545 13.8822 14.9391 13.9733 15.1708 14.2742L15.4343 14.6164L15.7279 15.2541C16.088 16.0361 16.1036 16.0955 16.1246 16.7597C16.1355 17.1113 16.1308 17.2609 16.0972 17.6445C16.035 18.3506 16.0058 18.5004 15.828 19.0212C15.7399 19.2786 15.6446 19.6036 15.6055 19.7795C15.5217 20.1561 15.4864 20.2884 15.3627 20.6878L15.2663 21L15.2885 21.4535C15.3009 21.7032 15.3061 21.9267 15.3001 21.9504C15.2941 21.9741 15.2306 22.0498 15.1588 22.1184L15.0284 22.2432L14.4514 22.3939C14.134 22.4766 13.7748 22.5811 13.6532 22.626C13.5316 22.6709 13.2632 22.7664 13.0569 22.838C12.8507 22.9098 12.4525 23.0543 12.1721 23.159C11.7864 23.3032 11.5735 23.3706 11.297 23.436C11.0961 23.4834 10.646 23.5909 10.2968 23.6747L9.66205 23.8273L9.06899 23.8758C8.74265 23.9025 8.43105 23.9234 8.37655 23.9222C8.32184 23.9209 8.05641 23.8907 7.7867 23.8551ZM23.405 23.8467C23.3052 23.7826 23.2291 23.704 23.027 23.4558L22.7739 23.1455L22.5365 23.0139C22.3102 22.8884 22.2834 22.8788 21.9642 22.8074C21.7799 22.7664 21.4871 22.692 21.3134 22.6424C21.0311 22.5621 20.9954 22.5473 20.9787 22.5035C20.9648 22.4668 20.9685 22.4358 20.9937 22.3802C21.0321 22.2949 21.014 22.3041 21.7425 21.9919C22.3683 21.7237 22.4538 21.6786 22.5696 21.5559C22.7273 21.3888 22.7609 21.3133 22.8079 21.0201C22.8466 20.778 22.8519 20.6162 22.8857 18.6447C22.9543 14.667 22.9789 12.8028 23.0212 8.36389C23.0449 5.86983 23.0507 5.98118 22.868 5.40628C22.7222 4.94765 22.722 4.94893 22.9624 3.55957C23.1766 2.32215 23.1994 2.23453 23.3347 2.12382C23.4929 1.99453 23.598 1.96397 23.9964 1.93148C24.9077 1.85754 26.5336 1.80753 28.6849 1.78765C30.3809 1.77205 30.5495 1.77333 31.0315 1.8071C32.1507 1.88489 32.6632 1.97273 33.1464 2.16913C33.2738 2.22085 33.5725 2.32921 33.8104 2.40978C34.2887 2.57199 34.3629 2.60853 34.9117 2.95133C35.374 3.24006 35.7257 3.52665 36.1237 3.93827C36.356 4.17891 36.4675 4.31612 36.7426 4.70059C37.0217 5.09041 37.1157 5.24044 37.2993 5.58858C37.6614 6.27461 37.677 6.32248 37.7445 6.9694C37.7887 7.39191 37.7834 8.52952 37.7349 9.05526C37.6913 9.52522 37.6802 9.59532 37.5906 9.96996C37.5291 10.2271 37.5152 10.2604 37.2814 10.7105C37.1055 11.0488 36.9888 11.2467 36.8672 11.4125C36.6304 11.735 36.1874 12.1973 35.8379 12.4858C35.0745 13.1165 33.6044 14.0079 33.1513 14.1148C32.7401 14.2118 32.4978 14.2282 30.7333 14.2789C26.1609 14.4103 25.3813 14.4381 25.29 14.4729C25.1413 14.53 25.0308 14.6307 24.916 14.8138C24.8205 14.9664 24.8057 15.0047 24.7713 15.1889C24.6719 15.7213 24.5849 16.7428 24.5926 17.2901C24.5952 17.4763 24.6157 18.026 24.6382 18.5115C24.6972 19.7872 24.7091 21.396 24.6647 22.1069L24.6311 22.6454L24.5093 23.0737C24.3531 23.6234 24.2973 23.7164 24.0494 23.8437C23.95 23.8946 23.9058 23.9046 23.732 23.9151L23.53 23.9273L23.405 23.8467ZM29.3292 12.971C31.4638 12.8972 31.5653 12.8893 32.2422 12.7455C32.6217 12.6649 33.5373 12.3888 33.8685 12.255C33.9908 12.2056 34.2391 12.0642 34.6187 11.8278C35.1453 11.4997 35.2011 11.4596 35.3943 11.2702C35.6667 11.0035 35.845 10.7652 36.0382 10.4096C36.3318 9.86973 36.4135 9.67674 36.5013 9.31599C36.6114 8.86377 36.6575 8.45536 36.6575 7.93454C36.6575 7.44363 36.6293 7.27223 36.4972 6.95786C36.4113 6.75354 36.3673 6.67767 36.0251 6.14232C35.8151 5.81341 35.1213 4.96218 34.9581 4.83288C34.9036 4.78993 34.7508 4.65464 34.618 4.5324C34.4255 4.35459 34.2846 4.24923 33.9175 4.00794L33.4576 3.70575L33.0391 3.54418L32.6204 3.38261L32.1819 3.34435C31.8949 3.31935 31.3439 3.29605 30.5891 3.27703C29.9543 3.261 29.2446 3.24327 29.0119 3.23728C27.8918 3.20929 25.5986 3.19091 25.499 3.20929C25.3381 3.23899 25.1547 3.34606 25.0288 3.48391C24.904 3.62026 24.9038 3.6209 24.63 4.30543C24.4356 4.79121 24.423 4.8316 24.3591 5.17098C24.2759 5.61145 24.2687 5.65804 24.1844 6.28401C24.0584 7.22137 24.0398 7.49236 24.0398 8.40044C24.0398 9.38417 24.0628 9.73509 24.1936 10.7297C24.2458 11.1264 24.302 11.5592 24.3189 11.6914C24.3535 11.9669 24.4161 12.192 24.5189 12.4127C24.5788 12.541 24.608 12.5794 24.695 12.6444C24.9656 12.8459 25.1686 12.888 26.2613 12.969C26.7375 13.0043 27.1876 13.0342 27.2615 13.0355C27.3357 13.0368 28.266 13.0079 29.3292 12.971ZM73.1108 23.6582C72.8757 23.5253 72.7363 23.4323 72.6348 23.3402L72.4912 23.2103V23.0906C72.4912 22.9887 72.5064 22.9359 72.5946 22.7313C72.6515 22.5993 72.7122 22.4309 72.7297 22.3569C72.7564 22.2428 72.7746 21.6982 72.8481 18.7985C72.896 16.9155 72.9834 13.6307 73.0426 11.4991C73.1193 8.72934 73.1527 7.23419 73.1593 6.25986L73.1685 4.89636L73.1153 4.75958C72.9806 4.41379 72.837 4.23726 72.4143 3.89809C72.2035 3.72904 72.0304 3.64484 71.4994 3.45335C71.0202 3.28045 70.936 3.25716 70.5101 3.17894C69.9967 3.08469 69.7334 3.07593 67.408 3.07507L65.4886 3.07443L65.3884 3.02421C65.1561 2.90795 65.1116 2.83699 64.9235 2.28582C64.8526 2.07809 64.7509 1.84621 64.5886 1.52179C64.2852 0.915691 64.2296 0.720996 64.3185 0.575242C64.3756 0.481634 64.4356 0.439746 64.6333 0.356184C64.9079 0.240136 65.2437 0.189699 65.7453 0.189485L66.1449 0.189272L66.255 0.24612C66.3958 0.318997 66.4283 0.366228 66.4352 0.508349C66.4403 0.619267 66.4377 0.62632 66.3227 0.795155C66.246 0.907997 66.1541 1.01165 66.0588 1.09329C65.9737 1.16617 65.8838 1.26512 65.8434 1.33051C65.7799 1.43331 65.7748 1.45233 65.7822 1.55684C65.7893 1.65472 65.7998 1.68036 65.8566 1.73956C65.893 1.77739 65.966 1.83146 66.0188 1.85946L66.115 1.91075L73.1356 1.9225C76.997 1.92892 80.3162 1.94024 80.512 1.94772C80.8988 1.96268 80.9426 1.97273 81.1236 2.09027C81.2067 2.14413 81.2379 2.18067 81.292 2.28796C81.3497 2.40251 81.3583 2.43777 81.3583 2.56216C81.3583 2.69872 81.3553 2.70855 81.2862 2.7919C81.2465 2.83977 81.1918 2.89641 81.1644 2.91778C81.0065 3.04152 80.2664 3.09046 78.2231 3.11226C76.389 3.13192 76.1111 3.15244 75.5847 3.30674C75.0755 3.45613 74.7124 3.60893 74.6307 3.70831C74.6175 3.72477 74.5732 3.80726 74.5328 3.89189C74.4709 4.02098 74.4553 4.07975 74.4356 4.25735C74.4183 4.41528 74.4033 6.68131 74.3768 13.1907C74.3413 21.8628 74.3416 21.9137 74.3792 22.134C74.4091 22.3095 74.4407 22.411 74.5313 22.6226C74.6423 22.8822 74.6455 22.8942 74.6455 23.0617C74.6455 23.3032 74.6202 23.3424 74.3185 23.5657C74.0047 23.7982 73.9445 23.823 73.6645 23.8358L73.4433 23.8461L73.1108 23.6582ZM84.4454 23.5858C84.3819 23.5712 84.2304 23.5366 84.1088 23.5086C83.7775 23.4328 83.4599 23.3321 83.3757 23.2763C83.3041 23.2289 83.3009 23.2225 83.3009 23.1227C83.3009 22.9934 83.3465 22.9442 83.5191 22.8869C83.725 22.8188 83.8726 22.8046 84.4683 22.7957C85.0211 22.7876 85.0566 22.789 85.2088 22.8297C85.3297 22.8617 85.3928 22.8914 85.4672 22.951C85.5556 23.0218 85.567 23.0397 85.577 23.1231C85.5913 23.2404 85.5531 23.2977 85.3889 23.4041C85.2372 23.5024 85.0395 23.5541 84.6185 23.6052C84.5869 23.6091 84.5089 23.6003 84.4454 23.5858ZM76.8516 23.2958L76.7209 23.2261L76.7266 23.138C76.732 23.0579 76.7392 23.0464 76.8093 23.0068C76.8769 22.9686 76.9136 22.9632 77.1111 22.963C77.2346 22.9628 77.3601 22.972 77.39 22.9833C77.4815 23.0179 77.5306 23.0776 77.5306 23.1536C77.5306 23.2154 77.5219 23.2272 77.4454 23.2676C77.3686 23.3084 77.1186 23.3661 77.0209 23.3657C76.9998 23.3654 76.9237 23.334 76.8516 23.2958ZM34.0705 22.9205C33.9331 22.9132 33.6084 22.8933 33.3492 22.8765C32.8846 22.8459 32.8756 22.8444 32.7049 22.7758C32.4773 22.6841 32.4452 22.6546 32.4452 22.5371V22.4452L32.6136 22.3661C32.7393 22.3071 32.8207 22.2828 32.9357 22.2695C33.2812 22.2295 34.1385 22.2077 35.7059 22.1988C37.1692 22.1904 37.3795 22.193 37.525 22.2201C37.7445 22.2614 38.3153 22.2625 38.4656 22.2221C38.5412 22.2018 38.6756 22.1936 38.9368 22.1934C39.2561 22.1934 39.3266 22.1992 39.4946 22.2392C39.6218 22.2697 39.8075 22.2932 40.0428 22.3088C40.467 22.337 40.5044 22.3505 40.5044 22.4755C40.5044 22.6403 40.4084 22.6736 39.9342 22.6741C39.7962 22.6741 39.654 22.6877 39.5341 22.7123C39.432 22.7335 39.2287 22.7606 39.0826 22.7728C38.856 22.7918 38.7795 22.7905 38.5669 22.7634C38.1386 22.7093 37.8163 22.7202 37.2016 22.8096C36.7355 22.8775 36.5983 22.8897 36.1286 22.9051C35.397 22.929 34.3748 22.9367 34.0705 22.9205ZM29.8077 22.7668C29.6791 22.6597 29.6368 22.5832 29.6374 22.4584C29.6378 22.3776 29.6406 22.374 29.7864 22.2716C29.9244 22.1748 29.9488 22.165 30.1274 22.1342C30.5038 22.0697 30.5936 22.0682 30.7761 22.1237C30.9146 22.1661 30.9515 22.1866 31.0171 22.2577C31.0898 22.3366 31.0941 22.3477 31.0862 22.436C31.0635 22.6867 31.0347 22.7217 30.791 22.7944C30.6511 22.8361 30.5771 22.8446 30.2762 22.8536L29.9246 22.8641L29.8077 22.7668ZM41.3507 22.826C41.3137 22.8166 41.2005 22.8046 41.0992 22.7995C40.8613 22.7875 40.7512 22.7427 40.6961 22.6345C40.6722 22.5875 40.66 22.5326 40.6641 22.4911C40.6732 22.4024 40.7797 22.2571 40.86 22.2236C40.9485 22.1866 43.748 22.156 43.8535 22.1909C43.9568 22.2251 44.0179 22.3016 44.0487 22.4362L44.0758 22.554L43.9972 22.6424C43.9345 22.713 43.8871 22.7429 43.7651 22.7893L43.6116 22.8474L42.5148 22.8455C41.9115 22.8444 41.3877 22.8356 41.3507 22.8262V22.826ZM0.574866 22.6514C0.320972 22.4458 0.29212 22.1699 0.499852 21.9331C0.591322 21.829 0.646033 21.8087 0.833248 21.8087C0.971308 21.8087 1.01384 21.8164 1.09355 21.8568C1.22157 21.9218 1.26624 22.009 1.26624 22.1932C1.26624 22.4467 1.14399 22.595 0.854192 22.6929L0.693478 22.7472L0.574866 22.6514ZM84.3781 1.25379C84.2565 1.21703 83.9752 1.11017 83.7529 1.01656C83.3061 0.827854 83.0947 0.770578 82.3681 0.640853C82.1565 0.603025 81.9736 0.56883 81.9616 0.56477C81.9477 0.560068 81.9441 0.535277 81.952 0.497022C81.9637 0.439532 81.9744 0.433121 82.1661 0.37093C82.3356 0.315791 82.4239 0.300404 82.7143 0.275399C82.9047 0.258943 83.289 0.224321 83.5683 0.198034C83.991 0.15871 84.1855 0.150803 84.7266 0.150803C85.3701 0.150803 85.3783 0.15123 85.4787 0.196324C85.7138 0.302114 85.8591 0.479284 85.8591 0.660087C85.8591 0.778699 85.7681 0.952236 85.6375 1.08303L85.5409 1.17984L85.2528 1.24139C85.0944 1.27537 84.8824 1.307 84.782 1.31192C84.6149 1.31983 84.5805 1.31491 84.3781 1.25379ZM21.4335 1.03815C21.0802 0.913981 20.435 0.611787 20.4057 0.556862C20.3944 0.535918 20.3852 0.48826 20.3852 0.451073C20.3852 0.292496 20.6569 0.210643 21.3841 0.149307C21.7344 0.119814 21.9962 0.112762 22.7414 0.113189C23.9017 0.11383 23.9972 0.128363 24.1652 0.327759C24.2218 0.39508 24.2221 0.446799 24.1661 0.578448C24.1411 0.637219 24.1114 0.662652 24.0058 0.715439C23.7901 0.823579 23.6647 0.858415 23.2031 0.938772C22.9596 0.981088 22.6675 1.03281 22.5538 1.05375C22.4209 1.07833 22.2213 1.09564 21.996 1.10205L21.6451 1.11252L21.4335 1.03815ZM41.0252 0.7569C40.915 0.74194 40.8124 0.736383 40.7974 0.744932C40.7825 0.753267 40.7318 0.751343 40.6848 0.740444C40.623 0.726339 40.5655 0.727621 40.4779 0.745146C40.2548 0.789385 39.6711 0.692999 39.4113 0.568617C39.3362 0.532926 39.3206 0.516043 39.3157 0.466247C39.311 0.417947 39.3219 0.397644 39.3751 0.357038C39.466 0.287795 39.7419 0.210643 40.0043 0.181364C40.1977 0.159565 40.3431 0.130072 40.6487 0.0505703C40.694 0.0386023 41.2221 0.0227873 41.9322 0.0116741C43.1194 -0.00670547 43.1425 -0.00627803 43.3814 0.0341142C43.6302 0.0760024 43.7326 0.114899 43.8824 0.224321C43.9578 0.279246 43.9625 0.288436 43.9754 0.409612C43.9925 0.568189 43.97 0.608154 43.8255 0.678894C43.7336 0.723988 43.686 0.731895 43.4161 0.747924C43.2481 0.757969 42.6867 0.770151 42.1682 0.775066C41.4234 0.782119 41.1836 0.778272 41.0252 0.7569ZM1.15724 0.728048C0.987765 0.683382 0.872358 0.626747 0.790291 0.548741C0.736862 0.498091 0.727673 0.476078 0.727673 0.397858C0.727673 0.31109 0.732161 0.303396 0.814441 0.246761C0.862313 0.213849 0.976865 0.161489 1.0694 0.1305C1.23226 0.0760024 1.24871 0.0742927 1.61523 0.074079C1.91892 0.0738652 2.03005 0.0813453 2.18265 0.112548C2.44872 0.166832 2.60559 0.222611 2.68167 0.289504C2.77592 0.372212 2.77101 0.436327 2.66415 0.52395C2.55921 0.610078 2.44637 0.637006 1.93559 0.697487C1.33676 0.768441 1.31325 0.769509 1.15724 0.728048ZM58.7675 0.678253C58.5877 0.631449 58.4189 0.577165 58.3924 0.557503C58.3526 0.528011 58.3432 0.503006 58.3385 0.413887L58.3328 0.306174L58.4486 0.247616C58.6055 0.168328 58.7474 0.151444 59.2597 0.151017C59.6279 0.150589 59.7166 0.15636 59.8403 0.188203C60.0993 0.254241 60.2004 0.325408 60.2004 0.441242C60.2004 0.552588 60.1726 0.602384 60.0801 0.656667C59.9557 0.729544 59.8651 0.74365 59.4599 0.753908L59.0944 0.763098L58.7675 0.678253ZM36.1574 0.690434C35.7304 0.608154 35.6514 0.57054 35.642 0.444662C35.637 0.378624 35.6447 0.360244 35.6945 0.318142C35.7266 0.291214 35.801 0.251035 35.8597 0.229236C35.9602 0.191622 36.0055 0.189272 36.6287 0.189272H37.2908L37.6714 0.256165C37.8808 0.292924 38.1082 0.332675 38.177 0.344857C38.2459 0.356825 38.3121 0.376487 38.3243 0.388455C38.3531 0.417092 38.3777 0.535491 38.3549 0.535491C38.345 0.535491 38.0869 0.573532 37.781 0.620122C37.2846 0.695991 37.1775 0.706036 36.7825 0.715225C36.4045 0.723988 36.3137 0.720355 36.1574 0.690434ZM45.627 0.663293C45.5222 0.609864 45.5058 0.593408 45.4859 0.524164C45.4476 0.389096 45.4641 0.343147 45.5808 0.261935L45.6851 0.189272H45.8898C46.0751 0.189272 46.1046 0.194187 46.1991 0.242059L46.3036 0.295061L46.3096 0.397644C46.3136 0.468811 46.3055 0.515402 46.2837 0.548741C46.2363 0.621191 46.0396 0.701548 45.8804 0.713729C45.7567 0.723133 45.7362 0.719072 45.627 0.663293ZM75.0782 0.638929C75.0466 0.636151 74.8605 0.623969 74.6647 0.611787C74.323 0.590416 74.3067 0.587637 74.2563 0.539765C74.18 0.467957 74.1723 0.425214 74.2253 0.368365C74.2501 0.341864 74.2935 0.308098 74.3215 0.293565C74.3867 0.259584 75.0968 0.227954 75.7957 0.22774C76.224 0.22774 76.3109 0.232442 76.3631 0.258729C76.4766 0.316219 76.492 0.340155 76.492 0.458553V0.568189L76.3719 0.598537C76.2802 0.621832 76.1192 0.630808 75.6937 0.636578C75.3871 0.640639 75.1101 0.641707 75.0782 0.638929ZM31.5452 0.556007C31.5187 0.520103 31.5027 0.470735 31.5027 0.424359C31.5027 0.358107 31.5108 0.345498 31.5775 0.308097C31.6754 0.252959 31.7367 0.255096 31.809 0.316005C31.8613 0.36003 31.8682 0.377555 31.8682 0.467316V0.56883L31.7515 0.582081C31.6874 0.589347 31.6241 0.599392 31.6113 0.604307C31.5982 0.609223 31.5685 0.587424 31.5452 0.556007ZM77.8518 0.56306C77.7591 0.514119 77.7537 0.507921 77.7351 0.419871C77.727 0.380547 77.7386 0.362167 77.7993 0.318997C77.8662 0.271338 77.8892 0.266209 78.0337 0.266637C78.1803 0.267064 78.1995 0.271766 78.2551 0.319424C78.2979 0.356183 78.3197 0.395507 78.3284 0.450859L78.3408 0.52972L78.181 0.561564C78.0931 0.579302 78.0038 0.597682 77.9826 0.602598C77.9615 0.607513 77.9027 0.589774 77.8518 0.56306ZM54.2243 0.539338C54.2115 0.531216 54.1955 0.489756 54.1888 0.447226C54.1773 0.37499 54.1809 0.366228 54.2442 0.317928C54.3267 0.255096 54.3752 0.252745 54.4502 0.308097C54.4991 0.344429 54.507 0.362809 54.507 0.440387C54.507 0.529507 54.5062 0.530575 54.435 0.54233C54.3376 0.558358 54.2523 0.557076 54.2243 0.539338ZM49.9897 0.492961C49.9393 0.460904 49.9293 0.442525 49.9293 0.381402C49.9293 0.316646 49.9363 0.30596 49.9897 0.287153C50.0684 0.259798 50.1458 0.260439 50.2082 0.288863C50.2515 0.308739 50.2573 0.321775 50.2524 0.388241C50.2468 0.461545 50.2426 0.466033 50.1483 0.497877C50.053 0.530362 50.0483 0.530148 49.9897 0.492961ZM29.0918 0.446585C29.0779 0.364305 29.1023 0.335667 29.2215 0.29271C29.2724 0.274544 29.2946 0.278177 29.3726 0.317074C29.4451 0.353405 29.4639 0.372853 29.4639 0.411108C29.4639 0.470949 29.4139 0.49232 29.2348 0.50899L29.1042 0.521172L29.0918 0.446585Z" fill="#f9f9f9"/>
</svg>
