<svg width="18" height="18" viewBox="0 0 18 18" fill="none" xmlns="http://www.w3.org/2000/svg">
<path d="M8.50481 0.0194702C3.81527 0.0194702 0 3.83474 0 8.52428C0 13.2139 3.81527 17.0292 8.50481 17.0292C13.1945 17.0292 17.0097 13.2139 17.0097 8.52428C17.0097 3.83474 13.1945 0.0194702 8.50481 0.0194702ZM8.50481 0.930727C12.6987 0.930727 16.0985 4.33052 16.0985 8.52428C16.0985 12.7182 12.6987 16.118 8.50481 16.118C4.31105 16.118 0.911259 12.7182 0.911259 8.52428C0.911259 4.33052 4.31105 0.930727 8.50481 0.930727Z" fill="#63BC47"/>
<path d="M6.04158 4.20457C7.07327 4.20457 7.91268 5.04398 7.91268 6.07567C7.91268 7.10735 7.07327 7.94676 6.04158 7.94676C5.0099 7.94676 4.17049 7.10735 4.17049 6.07567C4.17049 5.04398 5.0099 4.20457 6.04158 4.20457ZM6.04158 5.11583C5.51151 5.11583 5.08175 5.5456 5.08175 6.07567C5.08175 6.60574 5.51151 7.0355 6.04158 7.0355C6.57165 7.0355 7.00142 6.60574 7.00142 6.07567C7.00142 5.5456 6.57165 5.11583 6.04158 5.11583ZM15.8866 6.51387H7.47223C7.23013 6.51387 7.03403 6.31776 7.03403 6.07578C7.03403 5.83368 7.23013 5.63758 7.47223 5.63758H15.8866C16.1286 5.63758 16.3248 5.83368 16.3248 6.07578C16.3248 6.31776 16.1286 6.51387 15.8866 6.51387Z" fill="#63BC47"/>
<path d="M9.31048 11.5789H1.39185C1.17776 11.5789 1.00414 11.4054 1.00414 11.1913C1.00414 10.9771 1.17776 10.8036 1.39185 10.8036H9.31048C9.52458 10.8036 9.69808 10.9771 9.69808 11.1913C9.69808 11.4054 9.52458 11.5789 9.31048 11.5789Z" fill="#63BC47"/>
<path d="M10.7307 9.28284C9.69898 9.28284 8.85958 10.1221 8.85958 11.1539C8.85958 12.1855 9.69898 13.0249 10.7307 13.0249C11.7624 13.0249 12.6018 12.1855 12.6018 11.1539C12.6018 10.1221 11.7624 9.28284 10.7307 9.28284ZM10.7307 10.1941C11.2607 10.1941 11.6905 10.6237 11.6905 11.1539C11.6905 11.684 11.2607 12.1138 10.7307 12.1138C10.2006 12.1138 9.77084 11.684 9.77084 11.1539C9.77084 10.6237 10.2006 10.1941 10.7307 10.1941Z" fill="#63BC47"/>
</svg>
