<svg xmlns="http://www.w3.org/2000/svg" xmlns:svg="http://www.w3.org/2000/svg" id="svg4" width="9.387" height="25.08" class="chakra-icon css-1udyl41" focusable="false" version="1.1" viewBox="0 0 9.387 25.08"><path id="path2-8" fill="none" stroke="currentColor" stroke-linecap="round" stroke-linejoin="round" stroke-width=".28" d="m 0.76959114,6.6477323 a 0.55903883,0.55903883 0 1 1 0.00326,-1.1180729 L 1.0523692,5.5304746 A 0.27951923,0.27951923 0 0 0 1.3327021,5.2517703 l 0.00245,-0.8385541 a 0.27951923,0.27951923 0 0 1 0.2803327,-0.278703 l 0.8385544,0.00245 a 0.27951923,0.27951923 0 0 1 0.2787024,0.2803327 l -8.153e-4,0.2795177 a 0.55903868,0.55903868 0 1 0 1.1180726,0.00326 L 3.8508091,4.4205509 A 0.27951923,0.27951923 0 0 1 4.1311419,4.1418478 l 0.8385544,0.00245 a 0.27951923,0.27951923 0 0 1 0.278703,0.280333 l -0.00245,0.8385539 A 0.27951923,0.27951923 0 0 1 4.9656202,5.5418837 L 4.6861023,5.5410684 a 0.55903848,0.55903848 0 1 0 -0.00326,1.1180719 l 0.279518,8.16e-4 a 0.27951923,0.27951923 0 0 1 0.2787035,0.280333 l -0.00245,0.838553 a 0.27951923,0.27951923 0 0 1 -0.280333,0.278703 l -0.838554,-0.0025 a 0.27951923,0.27951923 0 0 0 -0.2803289,0.278707 l -8.153e-4,0.279518 a 0.55903848,0.55903848 0 1 1 -1.1180721,-0.0033 l 8.152e-4,-0.279518 A 0.27951923,0.27951923 0 0 0 2.4426232,8.0502103 l -0.8385544,-0.0024 a 0.27951923,0.27951923 0 0 1 -0.278703,-0.280332 l 0.00245,-0.838554 A 0.27951923,0.27951923 0 0 0 1.0491082,6.6485413 Z" style="fill:none;stroke:#ff248e;stroke-width:.38;stroke-miterlimit:4;stroke-dasharray:none;stroke-opacity:1"/><path id="path2" fill="none" stroke="currentColor" stroke-linecap="round" stroke-linejoin="round" stroke-width=".28" d="M 3.8394171,4.6891948 A 0.5590386,0.5590386 0 1 1 2.7214226,4.6755961 l 0.0034,-0.2794985 A 0.27951923,0.27951923 0 0 0 2.4487226,4.113199 L 1.6102269,4.102999 A 0.27951923,0.27951923 0 0 1 1.3341282,3.820101 l 0.0102,-0.8384959 a 0.27951923,0.27951923 0 0 1 0.282898,-0.2760984 l 0.2794982,0.0034 A 0.55903865,0.55903865 0 1 0 1.920323,1.5909121 l -0.2794985,-0.0034 A 0.27951923,0.27951923 0 0 1 1.3647257,1.304615 l 0.0102,-0.83849577 A 0.27951923,0.27951923 0 0 1 1.657824,0.19002043 l 0.8384954,0.0102 a 0.27951923,0.27951923 0 0 1 0.276099,0.2828986 l -0.0034,0.2794986 a 0.55903846,0.55903846 0 1 0 1.1179942,0.013599 l 0.0034,-0.2794986 a 0.27951923,0.27951923 0 0 1 0.2828983,-0.2760992 l 0.8384953,0.0102 a 0.27951923,0.27951923 0 0 1 0.2760988,0.2828981 l -0.0102,0.83849537 a 0.27951923,0.27951923 0 0 0 0.2760985,0.2828985 l 0.2794985,0.0034 A 0.55903846,0.55903846 0 1 1 5.819703,2.756505 L 5.5402048,2.753105 A 0.27951923,0.27951923 0 0 0 5.2573071,3.0292036 l -0.0102,0.8384959 A 0.27951923,0.27951923 0 0 1 4.9642089,4.1437982 l -0.8384948,-0.0102 A 0.27951923,0.27951923 0 0 0 3.8428158,4.4096973 Z" style="fill:none;stroke:#ff9524;stroke-width:.38;stroke-miterlimit:4;stroke-dasharray:none;stroke-opacity:1"/><path id="path2-8-4" fill="none" stroke="currentColor" stroke-linecap="round" stroke-linejoin="round" stroke-width=".28" d="m 3.8453015,12.53431 a 0.5590386,0.5590386 0 1 1 -1.1180749,-0.0022 l 5.623e-4,-0.279518 A 0.27951923,0.27951923 0 0 0 2.448831,11.972462 l -0.838556,-0.0017 a 0.27951923,0.27951923 0 0 1 -0.2789566,-0.28008 l 0.00169,-0.838556 a 0.27951923,0.27951923 0 0 1 0.2800815,-0.278947 l 0.2795183,5.62e-4 a 0.55903868,0.55903868 0 1 0 0.00225,-1.1180747 L 1.615333,9.4551093 a 0.27951923,0.27951923 0 0 1 -0.2789567,-0.28008 l 0.00169,-0.838557 a 0.27951923,0.27951923 0 0 1 0.2800818,-0.278956 l 0.8385558,0.0017 a 0.27951923,0.27951923 0 0 1 0.2789526,0.280078 l -5.624e-4,0.279518 a 0.55903853,0.55903853 0 1 0 1.1180747,0.0023 l 5.623e-4,-0.27952 a 0.27951923,0.27951923 0 0 1 0.2800806,-0.278957 l 0.8385557,0.0017 a 0.27951923,0.27951923 0 0 1 0.2789567,0.28008 l -0.00169,0.838556 a 0.27951923,0.27951923 0 0 0 0.2789605,0.280077 l 0.279519,5.62e-4 a 0.55903846,0.55903846 0 1 1 -0.0022,1.1180737 l -0.279519,-5.62e-4 a 0.27951923,0.27951923 0 0 0 -0.2800797,0.278956 l -0.00169,0.838556 a 0.27951923,0.27951923 0 0 1 -0.2800805,0.278957 l -0.8385552,-0.0017 a 0.27951923,0.27951923 0 0 0 -0.2800806,0.278961 z" style="fill:none;stroke:#aa50ff;stroke-width:.38;stroke-miterlimit:4;stroke-dasharray:none;stroke-opacity:1"/><path id="path2-8-4-5" fill="none" stroke="currentColor" stroke-linecap="round" stroke-linejoin="round" stroke-width=".28" d="m 3.8415781,20.370452 a 0.5590386,0.5590386 0 1 1 -1.1180749,-0.0022 l 5.623e-4,-0.279518 a 0.27951923,0.27951923 0 0 0 -0.2789579,-0.28013 l -0.838556,-0.0017 a 0.27951923,0.27951923 0 0 1 -0.2789567,-0.28008 l 0.00169,-0.838556 a 0.27951923,0.27951923 0 0 1 0.2800816,-0.278947 l 0.2795183,5.62e-4 a 0.55903868,0.55903868 0 1 0 0.00225,-1.118075 l -0.2795252,-5.57e-4 a 0.27951923,0.27951923 0 0 1 -0.2789568,-0.28008 l 0.00169,-0.838557 a 0.27951923,0.27951923 0 0 1 0.2800819,-0.278956 l 0.8385558,0.0017 a 0.27951923,0.27951923 0 0 1 0.2789526,0.280078 l -5.624e-4,0.279518 a 0.55903853,0.55903853 0 1 0 1.1180747,0.0023 l 5.623e-4,-0.27952 a 0.27951923,0.27951923 0 0 1 0.2800806,-0.278957 l 0.8385557,0.0017 a 0.27951923,0.27951923 0 0 1 0.2789567,0.28008 l -0.00169,0.838556 a 0.27951923,0.27951923 0 0 0 0.2789605,0.280077 l 0.279519,5.62e-4 a 0.55903846,0.55903846 0 1 1 -0.0022,1.118074 l -0.279519,-5.62e-4 A 0.27951923,0.27951923 0 0 0 5.2425915,18.69622 l -0.00169,0.838556 A 0.27951923,0.27951923 0 0 1 4.960821,19.813733 l -0.8385552,-0.0017 a 0.27951923,0.27951923 0 0 0 -0.2800806,0.278961 z" style="stroke:#248eff;stroke-width:.38;stroke-miterlimit:4;stroke-dasharray:none;stroke-opacity:1"/><path id="path2-8-1" fill="none" stroke="currentColor" stroke-linecap="round" stroke-linejoin="round" stroke-width=".28" d="m 4.7185798,22.367044 a 0.5590386,0.5590386 0 1 1 0.00326,-1.118072 l 0.279518,8.15e-4 a 0.27951923,0.27951923 0 0 0 0.2803329,-0.278704 l 0.00245,-0.838554 a 0.27951923,0.27951923 0 0 1 0.2803328,-0.278703 l 0.8385544,0.0025 a 0.27951923,0.27951923 0 0 1 0.2787024,0.280332 l -8.153e-4,0.279518 a 0.55903873,0.55903873 0 1 0 1.1180726,0.0033 l 8.102e-4,-0.279523 A 0.27951923,0.27951923 0 0 1 8.0801306,19.86125 l 0.838554,0.0024 a 0.27951923,0.27951923 0 0 1 0.278703,0.280333 l -0.0025,0.838554 a 0.27951923,0.27951923 0 0 1 -0.280329,0.278699 l -0.279518,-8.15e-4 a 0.55903848,0.55903848 0 1 0 -0.0033,1.118072 l 0.279518,8.15e-4 a 0.27951923,0.27951923 0 0 1 0.278704,0.280333 l -0.0024,0.838554 a 0.27951923,0.27951923 0 0 1 -0.280333,0.278704 l -0.838554,-0.0024 a 0.27951923,0.27951923 0 0 0 -0.280329,0.278707 l -8.153e-4,0.279518 a 0.55903848,0.55903848 0 1 1 -1.1180721,-0.0033 l 8.152e-4,-0.279558 A 0.27951923,0.27951923 0 0 0 6.3916119,23.769524 l -0.8385544,-0.0024 A 0.27951923,0.27951923 0 0 1 5.2743544,23.486741 l 0.00245,-0.838554 A 0.27951923,0.27951923 0 0 0 4.9980968,22.367854 Z" style="fill:none;stroke:#ff9524;stroke-width:.38;stroke-miterlimit:4;stroke-dasharray:none;stroke-opacity:1"/><path id="path2-8-1-1" fill="none" stroke="currentColor" stroke-linecap="round" stroke-linejoin="round" stroke-width=".28" d="m 0.7479098,22.348964 a 0.5590386,0.5590386 0 1 1 0.00326,-1.118072 l 0.279518,8.15e-4 a 0.27951923,0.27951923 0 0 0 0.2803329,-0.278704 l 0.00245,-0.838554 a 0.27951923,0.27951923 0 0 1 0.2803328,-0.278703 l 0.8385545,0.0025 a 0.27951923,0.27951923 0 0 1 0.2787024,0.280332 l -8.153e-4,0.279518 a 0.55903873,0.55903873 0 1 0 1.1180726,0.0033 l 8.102e-4,-0.279523 A 0.27951923,0.27951923 0 0 1 4.1094607,19.84317 l 0.8385544,0.0024 a 0.27951923,0.27951923 0 0 1 0.278703,0.280333 l -0.00245,0.838554 A 0.27951923,0.27951923 0 0 1 4.943939,21.243156 l -0.2795179,-8.15e-4 a 0.55903848,0.55903848 0 1 0 -0.00326,1.118072 l 0.279518,8.15e-4 a 0.27951923,0.27951923 0 0 1 0.2787035,0.280333 l -0.00245,0.838554 a 0.27951923,0.27951923 0 0 1 -0.280333,0.278704 l -0.838554,-0.0024 a 0.27951923,0.27951923 0 0 0 -0.2803289,0.278707 l -8.153e-4,0.279518 a 0.55903848,0.55903848 0 1 1 -1.1180721,-0.0033 l 8.152e-4,-0.279558 A 0.27951923,0.27951923 0 0 0 2.420942,23.751444 l -0.8385545,-0.0024 A 0.27951923,0.27951923 0 0 1 1.3036844,23.468661 l 0.00245,-0.838554 A 0.27951923,0.27951923 0 0 0 1.0274268,22.349774 Z" style="fill:none;stroke:#aa50ff;stroke-width:.38;stroke-miterlimit:4;stroke-dasharray:none;stroke-opacity:1"/></svg>