<svg xmlns="http://www.w3.org/2000/svg" viewBox="0 0 97.733 38"><path fill="#f77f00" d="M2 0h38v38H2z"/><path d="M26.516 35.653q-1.9 0-3.27-.77-1.364-.777-2.101-2.197-.738-1.427-.738-3.375 0-1.9.738-3.335.737-1.435 2.076-2.237 1.347-.802 3.16-.802 1.218 0 2.268.393 1.059.385 1.844 1.162.794.778 1.235 1.957.44 1.17.44 2.742v.938H21.77v-2.117h7.184q0-.737-.32-1.307-.322-.569-.89-.89-.562-.328-1.308-.328-.777 0-1.379.36-.593.353-.93.955-.337.593-.345 1.322v2.013q0 .914.337 1.58.345.665.97 1.026.626.36 1.484.36.569 0 1.042-.16.473-.16.81-.481.336-.32.513-.786l3.159.209q-.24 1.138-.986 1.988-.738.842-1.909 1.315-1.162.465-2.686.465zM36.394 35.621q-.793 0-1.363-.561-.561-.57-.561-1.363 0-.786.561-1.347.57-.561 1.363-.561.77 0 1.347.56.578.562.578 1.348 0 .529-.273.97-.265.433-.698.697-.433.257-.954.257zm0-8.627q-.793 0-1.363-.561-.561-.562-.561-1.363 0-.786.561-1.34.57-.56 1.363-.56.77 0 1.347.56.578.554.578 1.34 0 .537-.273.978-.265.433-.698.69-.433.256-.954.256zM41.117 35.412V23.097h3.255v2.173h.144q.385-1.082 1.283-1.708.898-.625 2.149-.625 1.267 0 2.156.633.89.626 1.187 1.7h.128q.377-1.058 1.363-1.692.995-.641 2.35-.641 1.723 0 2.798 1.098 1.082 1.09 1.082 3.095v8.282h-3.407v-7.608q0-1.027-.546-1.54-.545-.513-1.363-.513-.93 0-1.45.593-.522.586-.522 1.548v7.52h-3.311v-7.68q0-.906-.521-1.444-.514-.537-1.355-.537-.57 0-1.027.289-.449.28-.713.794-.265.505-.265 1.186v7.392zM65.218 35.645q-1.179 0-2.1-.409-.923-.417-1.46-1.227-.53-.817-.53-2.036 0-1.026.378-1.724.376-.697 1.026-1.122.65-.425 1.475-.642.834-.216 1.748-.304 1.074-.113 1.732-.209.657-.104.954-.305.297-.2.297-.593v-.048q0-.762-.481-1.179-.474-.417-1.347-.417-.922 0-1.468.41-.545.4-.721 1.01l-3.16-.257q.241-1.122.947-1.94.705-.826 1.82-1.267 1.122-.449 2.598-.449 1.026 0 1.964.24.946.241 1.676.746.737.505 1.162 1.299.425.786.425 1.884v8.306h-3.239v-1.707h-.096q-.297.577-.794 1.018-.497.433-1.195.681-.697.241-1.611.241zm.978-2.357q.754 0 1.33-.297.578-.305.907-.818.329-.513.329-1.162v-1.307q-.16.104-.441.192-.273.08-.618.153-.344.064-.69.12l-.625.088q-.6.088-1.05.28-.449.193-.697.522-.249.32-.249.802 0 .697.505 1.066.513.36 1.299.36zM74.807 35.412V23.097h3.311v2.15h.129q.336-1.147 1.13-1.733.794-.593 1.828-.593.257 0 .553.032.297.032.521.088v3.03q-.24-.071-.665-.127-.425-.057-.778-.057-.753 0-1.347.33-.585.32-.93.897-.336.577-.336 1.331v6.967z"/><path d="M11.873 35.442V23.127h3.31v2.148h.13q.336-1.146 1.13-1.731.793-.594 1.828-.594.256 0 .553.032.297.032.521.088v3.031q-.24-.072-.665-.128-.425-.056-.778-.056-.754 0-1.347.328-.585.321-.93.898-.337.578-.337 1.331v6.968z"/><path d="M87.13 31.869l.008-4.097h.497l3.945-4.675h3.92l-5.3 6.19h-.809zm-3.095 3.543v-16.42h3.416v16.42zm7.697 0l-3.624-5.363 2.277-2.414 5.348 7.777z"/></svg>