<svg xmlns="http://www.w3.org/2000/svg" viewBox="0 0 38 38"><path fill="#f77f00" d="M0 0h38v38H0z"/><path d="M24.516 35.653q-1.9 0-3.27-.77-1.364-.777-2.101-2.197-.738-1.427-.738-3.375 0-1.9.738-3.335.737-1.435 2.076-2.237 1.347-.802 3.16-.802 1.218 0 2.268.393 1.059.385 1.844 1.162.794.778 1.235 1.957.44 1.17.44 2.742v.938H19.77v-2.117h7.184q0-.737-.32-1.307-.322-.569-.89-.89-.562-.328-1.308-.328-.777 0-1.379.36-.593.353-.93.955-.337.593-.345 1.322v2.013q0 .914.337 1.58.345.665.97 1.026.626.36 1.484.36.569 0 1.042-.16.473-.16.81-.481.336-.32.513-.786l3.159.209q-.24 1.138-.986 1.988-.738.842-1.909 1.315-1.162.465-2.686.465zM34.394 35.621q-.793 0-1.363-.561-.561-.57-.561-1.363 0-.786.561-1.347.57-.561 1.363-.561.77 0 1.347.56.578.562.578 1.348 0 .529-.273.97-.265.433-.698.697-.433.257-.954.257zm0-8.627q-.793 0-1.363-.561-.561-.562-.561-1.363 0-.786.561-1.34.57-.56 1.363-.56.77 0 1.347.56.578.554.578 1.34 0 .537-.273.978-.265.433-.698.69-.433.256-.954.256z"/><path d="M9.873 35.442V23.127h3.31v2.148h.13q.336-1.146 1.13-1.731.793-.594 1.828-.594.256 0 .553.032.297.032.521.088v3.031q-.24-.072-.665-.128-.425-.056-.778-.056-.754 0-1.347.328-.585.321-.93.898-.337.578-.337 1.331v6.968z"/></svg>